<?xml version="1.0" encoding="UTF-8" standalone="no"?>
<svg
   xmlns:dc="http://purl.org/dc/elements/1.1/"
   xmlns:cc="http://creativecommons.org/ns#"
   xmlns:rdf="http://www.w3.org/1999/02/22-rdf-syntax-ns#"
   xmlns:svg="http://www.w3.org/2000/svg"
   xmlns="http://www.w3.org/2000/svg"
   xmlns:sodipodi="http://sodipodi.sourceforge.net/DTD/sodipodi-0.dtd"
   xmlns:inkscape="http://www.inkscape.org/namespaces/inkscape"
   viewBox="0 0 501.551 501.551"
   id="svg2"
   version="1.1"
   inkscape:version="0.91 r13725"
   sodipodi:docname="bank.svg">
  <metadata
     id="metadata46">
    <rdf:RDF>
      <cc:Work
         rdf:about="">
        <dc:format>image/svg+xml</dc:format>
        <dc:type
           rdf:resource="http://purl.org/dc/dcmitype/StillImage" />
      </cc:Work>
    </rdf:RDF>
  </metadata>
  <defs
     id="defs44" />
  <sodipodi:namedview
     pagecolor="#ffffff"
     bordercolor="#666666"
     borderopacity="1"
     objecttolerance="10"
     gridtolerance="10"
     guidetolerance="10"
     inkscape:pageopacity="0"
     inkscape:pageshadow="2"
     inkscape:window-width="1366"
     inkscape:window-height="705"
     id="namedview42"
     showgrid="false"
     inkscape:zoom="0.47054039"
     inkscape:cx="-63.756479"
     inkscape:cy="250.7755"
     inkscape:window-x="-8"
     inkscape:window-y="-8"
     inkscape:window-maximized="1"
     inkscape:current-layer="svg2" />
  <path
     d="m 114.38854,227.82251 274.89815,0 0,180.21967 -274.89815,0 z"
     id="path4"
     inkscape:connector-curvature="0"
     style="fill:#40596b" />
  <path
     d="m 251.83845,68.006914 -211.459344,80.757976 0,79.05843 422.917014,0 0,-79.05762 z"
     id="path6"
     inkscape:connector-curvature="0"
     style="fill:#f2f2f2" />
  <path
     d="m 40.379106,442.04489 422.917014,0 0,34.00352 -422.917014,0 z"
     id="path8"
     inkscape:connector-curvature="0"
     style="fill:#acb3ba" />
  <path
     d="m 59.763048,407.19119 383.268802,0 0,34.00352 -383.267115,0 z"
     id="path10"
     inkscape:connector-curvature="0"
     style="fill:#cdd6e0" />
  <g
     id="g12"
     transform="matrix(0.84322002,0,0,0.81355932,40.379106,68.006914)"
     style="fill:#acb3ba">
    <path
       d="m 380.343,196.44 67.918,0 0,35.528 -67.917,0 z m 0,185.993 67.918,0 0,35.527 -67.917,0 z"
       id="path14"
       inkscape:connector-curvature="0" />
  </g>
  <path
     d="m 367.25926,255.87567 43.17286,0 0,122.4122 -43.17286,0 z"
     id="path16"
     inkscape:connector-curvature="0"
     style="fill:#f2f2f2" />
  <g
     id="g18"
     transform="matrix(0.84322002,0,0,0.81355932,40.379106,68.006914)"
     style="fill:#acb3ba">
    <path
       d="m 270.63,196.44 67.917,0 0,35.528 -67.917,0 z m 0,185.993 67.917,0 0,35.527 -67.917,0 z"
       id="path20"
       inkscape:connector-curvature="0" />
  </g>
  <path
     d="m 274.74621,255.87567 43.17287,0 0,122.4122 -43.17287,0 z"
     id="path22"
     inkscape:connector-curvature="0"
     style="fill:#f2f2f2" />
  <g
     id="g24"
     transform="matrix(0.84322002,0,0,0.81355932,40.379106,68.006914)"
     style="fill:#acb3ba">
    <path
       d="m 54.335,196.44 67.918,0 0,35.528 -67.918,0 z m 0,185.993 67.918,0 0,35.527 -67.918,0 z"
       id="path26"
       inkscape:connector-curvature="0" />
  </g>
  <path
     d="m 92.363616,255.87567 43.172874,0 0,122.4122 -43.172874,0 z"
     id="path28"
     inkscape:connector-curvature="0"
     style="fill:#f2f2f2" />
  <g
     id="g30"
     transform="matrix(0.84322002,0,0,0.81355932,40.379106,68.006914)"
     style="fill:#acb3ba">
    <path
       d="m 163.004,196.44 67.918,0 0,35.528 -67.918,0 z m 0,185.993 67.918,0 0,35.527 -67.918,0 z"
       id="path32"
       inkscape:connector-curvature="0" />
  </g>
  <path
     d="m 184.87582,255.87567 43.17287,0 0,122.4122 -43.17287,0 z"
     id="path34"
     inkscape:connector-curvature="0"
     style="fill:#f2f2f2" />
  <g
     id="g36"
     transform="matrix(0.84322002,0,0,0.81355932,40.379106,68.006914)"
     style="fill:#a0abb5">
    <path
       d="m 54.335,196.44 67.918,0 0,12.54 -67.918,0 z m 108.669,0 67.918,0 0,12.54 -67.918,0 z m 107.626,0 67.917,0 0,12.54 -67.917,0 z m 109.713,0 67.918,0 0,12.54 -67.917,0 z"
       id="path38"
       inkscape:connector-curvature="0" />
  </g>
  <ellipse
     cx="251.83846"
     cy="161.51662"
     id="circle40"
     rx="35.243225"
     ry="34.003529"
     style="fill:#acb3ba" />
</svg>
