<svg xmlns="http://www.w3.org/2000/svg" viewBox="0 0 19.25 19.25" width="512" height="512"><g fill="#FFF"><path d="M19.006 2.97a1.003 1.003 0 0 0-.756-.345H4.43L4.237 1.46A1 1 0 0 0 3.25.626H1a1 1 0 0 0 0 2h1.403l1.86 11.164c.008.044.03.08.045.123.016.053.03.103.054.15a.982.982 0 0 0 .12.18c.03.04.06.078.095.112a.96.96 0 0 0 .193.13c.038.02.07.05.112.065a.97.97 0 0 0 .367.075h11a1 1 0 0 0 0-2H6.097l-.166-1h11.32a1 1 0 0 0 .99-.858l1-7c.04-.288-.045-.58-.234-.797zm-1.91 1.655l-.284 2H13.25v-2h3.847zm-4.846 0v2h-3v-2h3zm0 3v2h-3v-2h3zm-4-3v2h-3a.48.48 0 0 0-.148.03l-.338-2.03H8.25zm-2.986 3H8.25v2H5.597l-.333-2zm7.986 2v-2h3.418l-.285 2H13.25z"/><circle cx="6.75" cy="17.125" r="1.5"/><circle cx="15.75" cy="17.125" r="1.5"/></g></svg>