<?xml version="1.0" encoding="UTF-8" standalone="no"?>
<svg
   xmlns:dc="http://purl.org/dc/elements/1.1/"
   xmlns:cc="http://creativecommons.org/ns#"
   xmlns:rdf="http://www.w3.org/1999/02/22-rdf-syntax-ns#"
   xmlns:svg="http://www.w3.org/2000/svg"
   xmlns="http://www.w3.org/2000/svg"
   xmlns:sodipodi="http://sodipodi.sourceforge.net/DTD/sodipodi-0.dtd"
   xmlns:inkscape="http://www.inkscape.org/namespaces/inkscape"
   viewBox="0 0 58.007 58.007"
   id="svg2"
   version="1.1"
   inkscape:version="0.91 r13725"
   sodipodi:docname="coins.svg">
  <metadata
     id="metadata30">
    <rdf:RDF>
      <cc:Work
         rdf:about="">
        <dc:format>image/svg+xml</dc:format>
        <dc:type
           rdf:resource="http://purl.org/dc/dcmitype/StillImage" />
      </cc:Work>
    </rdf:RDF>
  </metadata>
  <defs
     id="defs28" />
  <sodipodi:namedview
     pagecolor="#ffffff"
     bordercolor="#666666"
     borderopacity="1"
     objecttolerance="10"
     gridtolerance="10"
     guidetolerance="10"
     inkscape:pageopacity="0"
     inkscape:pageshadow="2"
     inkscape:window-width="1366"
     inkscape:window-height="705"
     id="namedview26"
     showgrid="false"
     inkscape:zoom="4.0684745"
     inkscape:cx="29.0035"
     inkscape:cy="29.0035"
     inkscape:window-x="-8"
     inkscape:window-y="-8"
     inkscape:window-maximized="1"
     inkscape:current-layer="svg2" />
  <path
     d="m 46.417581,29.887878 0,0.882713 c 0,4.93322 -9.124273,8.933898 -20.380678,8.933898 -6.212971,0 -11.77376,-1.220136 -15.511264,-3.14217 1.260467,4.444881 9.825839,8.125221 20.214497,8.125221 11.256406,0 20.380678,-4.319594 20.380678,-9.254238 0,-2.169763 -1.768416,-4.081831 -4.703233,-5.545424"
     id="path4"
     inkscape:connector-curvature="0"
     style="fill:#fcc62d" />
  <path
     d="m 30.740136,44.68754 c -11.256405,0 -20.380678,-4.319594 -20.380678,-9.254238 l 0,6.013831 c 0,4.934644 9.124273,8.935322 20.380678,8.935322 11.256406,0 20.380678,-4.000678 20.380678,-8.935322 l 0,-6.013831 c 0,4.934644 -9.124272,9.254238 -20.380678,9.254238"
     id="path6"
     inkscape:connector-curvature="0"
     style="fill:#e4af18" />
  <path
     d="m 12.711075,45.648557 c 0.462485,0.382983 0.987679,0.750305 1.567745,1.099118 l 0,-5.901356 c -0.580066,-0.363051 -1.10526,-0.74461 -1.567745,-1.14183 l 0,5.944068 z m 34.490378,-4.80295 0,5.901356 c 0.580065,-0.347389 1.10526,-0.715423 1.567745,-1.099118 l 0,-5.943356 c -0.462485,0.39722 -0.986113,0.778068 -1.567745,1.141118 m -31.354888,6.732102 c 0.495406,0.23278 1.019033,0.452746 1.567743,0.662033 l 0,-5.833016 c -0.54871,-0.219254 -1.072337,-0.45061 -1.567743,-0.694069 l 0,5.865764 z m 28.219399,0.66061 c 0.54871,-0.207864 1.072337,-0.428542 1.567744,-0.662034 l 0,-5.864339 c -0.495407,0.243457 -1.019034,0.475526 -1.567744,0.694068 l 0,5.832305 z M 18.982053,48.7772 c 0.506381,0.156611 1.029223,0.303967 1.567743,0.441357 l 0,-5.77678 c -0.53852,-0.14522 -1.061362,-0.30112 -1.567743,-0.466983 l 0,5.801695 z m 21.948423,0.440645 c 0.538519,-0.136678 1.061362,-0.283323 1.567744,-0.441356 l 0,-5.801695 c -0.506382,0.165863 -1.029225,0.321763 -1.567744,0.466983 l 0,5.776068 z m -18.029062,0.512543 c 0.511869,0.09397 1.034711,0.177965 1.567743,0.252711 l 0,-5.726949 c -0.533032,-0.08044 -1.055874,-0.170848 -1.567743,-0.270508 l 0,5.744746 z m 14.1097,0.253423 c 0.533033,-0.07617 1.055876,-0.160169 1.567744,-0.253423 l 0,-5.744746 c -0.511868,0.09966 -1.034711,0.190067 -1.567744,0.270508 l 0,5.726949 z m -9.406466,0.327458 c 0.515787,0.03418 1.039413,0.05838 1.567744,0.07546 l 0,-5.697051 c -0.528331,-0.01852 -1.051957,-0.04414 -1.567744,-0.08186 l 0,5.702034 z m 4.703232,0.07618 c 0.52833,-0.0178 1.051957,-0.04128 1.567745,-0.07618 l 0,-5.703458 c -0.515788,0.03772 -1.039415,0.06406 -1.567745,0.08257 l 0,5.69705 z"
     id="path8"
     inkscape:connector-curvature="0"
     style="fill:#ce9912" />
  <path
     d="m 26.036903,34.004591 c -11.256405,0 -20.3806789,-4.319595 -20.3806789,-9.254239 l 0,6.013831 c 0,4.935356 9.1242739,8.936034 20.3806789,8.936034 11.256405,0 20.380678,-4.000678 20.380678,-8.935322 l 0,-6.013119 c 0,4.934644 -9.124273,9.254238 -20.380678,9.254238"
     id="path10"
     inkscape:connector-curvature="0"
     style="fill:#e4af18" />
  <path
     d="m 8.0078413,34.964895 c 0.4624848,0.384407 0.9876791,0.751017 1.5677449,1.099831 l 0,-5.901356 C 8.9955204,29.800319 8.4703261,29.41876 8.0078413,29.022251 l 0,5.942644 z m 34.4903787,-4.802238 0,5.901357 c 0.580066,-0.34739 1.105259,-0.715423 1.567744,-1.099119 l 0,-5.944068 c -0.462485,0.398644 -0.986111,0.77878 -1.567744,1.14183 M 11.143331,36.89476 c 0.495407,0.232779 1.019033,0.452745 1.567744,0.662034 l 0,-5.833018 c -0.54871,-0.220677 -1.072337,-0.451321 -1.567744,-0.694779 l 0,5.865763 z m 28.2194,0.659897 c 0.54871,-0.20644 1.072336,-0.427118 1.567745,-0.660609 l 0,-5.865763 c -0.495409,0.24417 -1.019035,0.476949 -1.567745,0.69478 l 0,5.832306 z M 14.27882,38.094252 c 0.506381,0.15661 1.029224,0.303965 1.567745,0.441355 l 0,-5.77678 c -0.538521,-0.14522 -1.061364,-0.301118 -1.567745,-0.466982 l 0,5.801694 z m 21.948422,0.440643 c 0.538521,-0.136678 1.061363,-0.283321 1.567744,-0.441356 l 0,-5.801694 c -0.506381,0.165864 -1.029223,0.321762 -1.567744,0.466982 l 0,5.776068 z m -18.029061,0.512542 c 0.511868,0.09397 1.03471,0.177966 1.567745,0.252713 l 0,-5.726238 c -0.533035,-0.08044 -1.055877,-0.170847 -1.567745,-0.270509 l 0,5.744747 z m 14.109699,0.253425 c 0.533034,-0.07546 1.055877,-0.159459 1.567745,-0.252712 l 0,-5.744747 c -0.511868,0.09966 -1.034711,0.190068 -1.567745,0.270509 l 0,5.72695 z m -9.406466,0.327457 c 0.515788,0.0356 1.039415,0.05908 1.567743,0.07618 l 0,-5.697052 c -0.528328,-0.01851 -1.051955,-0.04414 -1.567743,-0.08186 l 0,5.702035 z m 4.703234,0.07618 c 0.528329,-0.0178 1.051957,-0.04129 1.567744,-0.07618 l 0,-5.704169 c -0.515787,0.03843 -1.039415,0.06407 -1.567744,0.08328 l 0,5.69705 z"
     id="path12"
     inkscape:connector-curvature="0"
     style="fill:#ce9912" />
  <path
     d="m 45.882196,32.800827 c -2.098426,3.955119 -10.1825,6.903662 -19.845293,6.903662 -3.608948,0 -6.996845,-0.412882 -9.937149,-1.134 2.843888,1.753322 7.905352,3.246102 14.640382,3.246102 10.72494,0 17.245189,-3.781425 17.245189,-6.383289 0,-0.868475 -0.73684,-1.789627 -2.103129,-2.632475 M 29.956264,32.585845 c -11.256405,0 -20.3806778,-4.00068 -20.3806778,-8.935323 l 0,-4.023457 c -2.4613594,1.402372 -3.9193621,3.159254 -3.9193621,5.128271 0,4.934644 9.1242739,9.254238 20.3806789,9.254238 5.419693,0 10.340842,-1.003729 13.99212,-2.592612 -2.973228,0.741764 -6.40894,1.168883 -10.073542,1.168883"
     id="path14"
     inkscape:connector-curvature="0"
     style="fill:#ffd949" />
  <path
     d="m 29.956264,26.885945 c -11.256405,0 -20.3806778,-4.319593 -20.3806778,-9.254236 l 0,6.01383 c 0,4.935356 9.1242728,8.936035 20.3806778,8.936035 11.256405,0 20.380678,-4.000679 20.380678,-8.935323 l 0,-6.013119 c 0,4.934644 -9.124273,9.254238 -20.380678,9.254238"
     id="path16"
     inkscape:connector-curvature="0"
     style="fill:#e4af18" />
  <path
     d="m 11.927204,27.846251 c 0.462483,0.384406 0.987679,0.751017 1.567743,1.09983 l 0,-5.901356 c -0.580064,-0.36305 -1.10526,-0.74461 -1.567743,-1.141119 l 0,5.942645 z m 34.490377,-4.802237 0,5.901356 c 0.580066,-0.34739 1.105259,-0.715425 1.567744,-1.099119 l 0,-5.944068 c -0.462485,0.398644 -0.986111,0.778779 -1.567744,1.141831 m -31.354889,6.732102 c 0.495407,0.232779 1.019033,0.452745 1.567743,0.662034 l 0,-5.833018 c -0.54871,-0.220677 -1.072336,-0.451321 -1.567743,-0.69478 l 0,5.865764 z m 28.2194,0.659898 c 0.54871,-0.206441 1.072337,-0.427119 1.567745,-0.660611 l 0,-5.865763 c -0.495408,0.244171 -1.019035,0.476951 -1.567745,0.69478 l 0,5.832306 z m -25.083911,0.539593 c 0.506381,0.15661 1.029224,0.303967 1.567745,0.441355 l 0,-5.776779 C 19.227405,25.494962 18.704562,25.339065 18.198181,25.1732 l 0,5.801695 z m 21.948422,0.440644 c 0.538521,-0.136677 1.061363,-0.283322 1.567744,-0.441356 l 0,-5.801695 c -0.506381,0.165865 -1.029223,0.321762 -1.567744,0.466983 l 0,5.776068 z m -18.029061,0.512543 c 0.511868,0.09397 1.034711,0.177966 1.567745,0.252711 l 0,-5.726237 C 23.152253,26.374828 22.62941,26.28442 22.117542,26.18476 l 0,5.744745 z m 14.1097,0.253423 c 0.533033,-0.07546 1.055876,-0.159457 1.567744,-0.252712 l 0,-5.744745 c -0.511868,0.09966 -1.034711,0.190067 -1.567744,0.270508 l 0,5.726949 z m -9.406467,0.327458 c 0.515788,0.03559 1.039415,0.05908 1.567744,0.07617 l 0,-5.697049 c -0.528329,-0.01852 -1.051956,-0.04414 -1.567744,-0.08186 l 0,5.702033 z m 4.703234,0.07617 c 0.528329,-0.0178 1.051957,-0.04128 1.567744,-0.07617 l 0,-5.70417 c -0.515787,0.03843 -1.039415,0.06407 -1.567744,0.08329 l 0,5.697051 z"
     id="path18"
     inkscape:connector-curvature="0"
     style="fill:#ce9912" />
  <path
     d="m 50.336942,17.636691 c 0,4.934644 -9.124273,9.254238 -20.380678,9.254238 -11.256405,0 -20.3806778,-4.319594 -20.3806778,-9.254238 0,-4.934643 9.1242728,-8.5423732 20.3806778,-8.5423732 11.256405,0 20.380678,3.6077302 20.380678,8.5423732"
     id="path20"
     inkscape:connector-curvature="0"
     style="fill:#fcc62d" />
  <path
     d="m 29.956264,24.019268 c -10.72494,0 -17.245189,-3.78 -17.245189,-6.382577 0,-2.601865 6.520249,-6.40678 17.245189,-6.40678 10.724939,0 17.245189,3.804915 17.245189,6.40678 0,2.602577 -6.52025,6.382577 -17.245189,6.382577"
     id="path22"
     inkscape:connector-curvature="0"
     style="fill:#ffd949" />
  <path
     d="m 35.271702,18.604827 c 0.642775,-0.124576 1.019033,-0.484067 0.881072,-0.895525 l -0.148936,-0.438508 c -0.109742,-0.322475 -0.533034,-0.590849 -1.052739,-0.726103 -0.707053,-1.371051 -2.50996,-1.867931 -5.187668,-1.867931 -0.126987,0 -0.25084,0.0028 -0.373122,0.0072 -0.913211,0.03418 -1.824855,-0.04557 -2.535828,-0.281898 -0.290033,-0.0961 -0.525194,-0.196475 -0.681967,-0.30112 -0.07056,-0.04698 -0.241434,-0.01708 -0.241434,0.04272 0,0.103933 0.0079,0.227798 0.03371,0.363052 0.0972,0.532474 -0.01882,0.452746 -0.597312,0.982373 -0.335497,0.309661 -0.60358,0.665594 -0.796413,1.058542 -0.517357,0.135254 -0.938296,0.402916 -1.047254,0.723966 l -0.148936,0.438509 c -0.138745,0.410745 0.238298,0.770949 0.881073,0.894813 0.183425,1.050712 0.96965,1.973289 2.683978,2.48156 l -0.09406,0.738204 c -0.02509,0.197186 -0.211645,0.379423 -0.486,0.46983 l -3.456877,1.131864 c 2.019255,0.384408 4.320703,0.617188 6.861234,0.617188 2.505256,0 4.777702,-0.225662 6.776575,-0.599391 L 33.15838,22.295856 c -0.266516,-0.09112 -0.450726,-0.271932 -0.475025,-0.465559 l -0.09406,-0.743187 c 1.714327,-0.508271 2.500551,-1.430846 2.683977,-2.482271"
     id="path24"
     inkscape:connector-curvature="0"
     style="fill:#f0c41b" />
</svg>
