<svg xmlns="http://www.w3.org/2000/svg" viewBox="0 0 868.82666 868.82666" height="868.827" width="868.827"><path d="M626.944 242.42c-16.138 0-19.745 8.373-19.745 18.73v119.8h17.43c16.14 0 19.76-8.37 19.76-18.726h.01V274.55h55.95v-32.13h-73.41m-185.91.046c-16.16 0-19.76 8.346-19.76 18.703v32.55h-38.72v-51.26h-17.47c-16.16 0-19.76 8.34-19.76 18.7V380.9h17.472c16.146 0 19.757-8.363 19.757-18.717V326.45h38.723v54.455h17.463c16.15 0 19.76-8.364 19.76-18.718V242.465h-17.46m74.67 49.2V242.42h-17.48c-16.12 0-19.75 8.38-19.75 18.73v115.583c15.5 4.177 36.207 7.104 58.21 7.104 28.63 0 56.47-10.73 56.47-46.602 0-8.088-1.66-15.8-4.246-21.2-14.775-30.858-56.092-28.444-73.2-24.37zm34.6 57.81c-7.186 5.816-27.29 3.96-34.6 3.018v-31.588c1.51-.355 30.386-6.4 38.47 7.233 4.105 6.92 1.726 17.84-3.873 21.335M313.29 256.77c-10.836-12.04-25.574-18.053-44.23-18.053-35.494 0-62.97 29.304-62.97 74.02 0 52.52 33.72 71.917 69.462 71.917 25.625 0 42.01-6.46 46.23-8.71 0 0-1.69-10.184-1.844-10.926-3.257-16.324-10.73-18.597-19.114-16.756 0 0-51.826 13.53-56.497-23.672h84.45c3.187-35.59-4.66-55.793-15.49-67.82zm-68.96 40.953c.49-3.326 3.09-26.6 25.23-26.6 22.64 0 23.82 23.274 24 26.6h-49.23" fill="#f68a19"/><path d="M333.07 491.83c-21.79-8.648-65.217-5.806-100.686 3.587V641.84h20.94c19.395 0 23.734-9.152 23.734-20.48l.03-96.54c3.735-.55 14.522-1.422 19.825-1.44 10.373-.034 17.497 2.878 21.293 8.637 3.803 5.777 5.703 15.566 5.703 29.417v80.406h16.12c14.64 0 28.57-.856 28.57-20.48v-65.122c0-39.014-13.75-56.232-35.54-64.407m59.53-53.18v203.16h20.99c19.39 0 23.72-9.15 23.72-20.48V418.18h-20.99c-19.38 0-23.73 9.135-23.73 20.47m69.454 72.097v131.056h21.01c19.373 0 23.702-9.156 23.702-20.484V490.29h-20.98c-19.396 0-23.735 9.126-23.735 20.453" fill="#4a6b82"/><path d="M484.104 415.09c-14.832 0-26.845 12.668-26.845 28.386 0 15.667 12.01 28.358 26.84 28.358 14.81 0 26.85-12.69 26.85-28.358 0-15.718-12.04-28.387-26.85-28.387" fill="#f68a19"/><path d="M634.71 491.83c-21.776-8.648-65.207-5.806-100.676 3.587V641.84h20.948c19.387 0 23.72-9.152 23.72-20.48l.037-96.54c3.73-.55 14.52-1.422 19.82-1.44 10.37-.034 17.5 2.878 21.29 8.637 3.8 5.777 5.7 15.566 5.7 29.417v80.406h16.12c14.64 0 28.57-.856 28.57-20.48v-65.122c0-39.014-13.73-56.232-35.55-64.407m181.51 14.12c-13.016-13.16-30.72-19.75-53.11-19.75-42.636 0-75.62 32.07-75.62 81 0 57.46 40.49 78.69 83.405 78.69 30.785 0 50.45-7.07 55.52-9.52 0 0-2.034-11.15-2.22-11.95-3.9-17.87-12.88-20.35-22.94-18.34 0 0-62.244 14.81-67.855-25.9H834.8c3.826-38.94-5.594-61.05-18.595-74.21zm-82.82 44.82c.594-3.63 3.71-29.1 30.292-29.1 27.2 0 28.61 25.47 28.826 29.1h-59.1m102.22-58.22h4.17v12.1h2.487v-12.11h4.158v-2.24H835.62v2.24m26.318-2.24h-2.245c-1.588 2.95-3.79 8.51-4.083 9.25-.32-.74-2.795-6.95-4.12-9.243h-2.283c-.632 5.3-1.042 13.06-1.042 14.34h2.426c.06-1.69.17-6.12.51-10.3 0 0 2.95 6.73 3.55 8.38h1.84c1.5-3.81 3.54-8.387 3.54-8.387.27 2.71.49 8.55.53 10.294h2.42c0-2.24-.73-12.28-1.03-14.342" fill="#4a6b82"/><path d="M752.576 242.42h-17.484c-16.118 0-19.74 8.377-19.74 18.728v119.8h12.68c15.448 0 23.955-7.686 30.038-17.424.125-.142 33.644-53.867 39.227-62.286v79.71h17.884c16.14 0 19.77-8.373 19.77-18.724h.02L835 242.42h-14.466c-13.03 0-21.03 5.58-27.012 13.027-9.636 11.996-30.932 46.58-40.938 62.016l-.006-75.045" fill="#f68a19"/><path d="M181.873 464.004c-10.55-10.82-34.188-26.505-73.238-26.505-40.076 0-63.14 17.49-72.463 26.5-9.137 8.83-31.055 30.93-31.055 77.82 0 46.23 20.917 68.9 30.31 77.68 11.952 11.18 34.52 26.38 73.208 26.38 29.845 0 57.063-9.68 73.826-26.39 8.23-8.18 29.71-30.99 29.71-77.68 0-46.48-18.64-65.878-30.29-77.82zm-73.238 142.402c-38.688 0-55.212-31.312-55.212-64.58 0-35.71 17.795-64.845 55.212-64.845 41.85 0 55.91 33.4 55.91 64.85 0 37.97-20.99 64.58-55.91 64.58" fill="#4a6b82"/><path d="M162.435 428.014c1.462.007 12.097-.03 13.537-.03 12.19 0 23.77-.782 23.77-18.713l.024-64.19h-21.612V198.43h-97.08c-22.066-.3-19.756 18.73-19.756 18.73 0 27.18-1.317 87.174-26.176 127.916H13.034l.008 82.83 13.713.024c12.19 0 23.74-.417 23.74-18.648l-.005-28.335h111.925zm-22.247-82.94h-64.6c6.208-11.318 19.483-38.898 22.073-101.853l.06-.13c0-4.76 1.65-8.63 8.87-8.76h33.61v110.75" fill="#f68a19"/></svg>