<svg xmlns="http://www.w3.org/2000/svg" viewBox="0 0 1771.65 1771.65" height="1771.65" width="1771.65"><defs><clipPath id="a"><path d="M0 1417.323h1417.323V0H0v1417.323z"/></clipPath></defs><g clip-path="url(#a)" transform="matrix(1.97407 0 0 -1.8101 -509.414 2184.742)"><path d="M500.712 748.173v-63.2s102.572-93.248 212.396-93.248c109.825 0 203.502 93.247 203.502 93.247v62.165c.01.575-99.376-61.374-202.207-61.258-105.098.11-213.69 62.29-213.69 62.29" fill="#5bc23c"/><path d="M916.566 980.63v2.525h-.064c-3.185 112.086-94.983 201.99-207.84 201.99-112.86 0-204.657-89.904-207.842-201.99h-.152V780.818s91.996-56.734 217.103-56.734c118.64 0 198.8 57.76 198.8 57.76V973.67c.02 1.163.09 2.313.09 3.48 0 1.168-.07 2.318-.09 3.48" fill="#32ac4c"/><path d="M716.386 871.34c42.272 0 76.54 34.267 76.54 76.54 0 42.27-34.268 76.54-76.54 76.54-42.272 0-76.54-34.27-76.54-76.54 0-42.273 34.268-76.54 76.54-76.54m107.177-130.814c-4.838 66.27-50.96 118.25-107.177 118.25-56.822 0-103.32-53.11-107.308-120.4-63.658 17.435-108.86 43.47-108.86 43.47V747.54s113.596-63.455 216.09-63.455c102.492 0 200.753 60.157 200.753 60.157l.05 37.604s-49.58-28.557-93.54-41.32" fill="#fff"/><path d="M272.9 458.425h32.336V334.997H272.9v123.428zm55.04-37.105c0 13.632-.74 25.495-.987 37.106h27.892l1.48-14.136h.495c6.418 9.845 16.785 16.154 29.373 16.154 22.955 0 32.088-18.678 32.088-46.19v-79.256h-32.33v77.237c0 10.6-2.46 20.445-11.84 20.445-5.43 0-9.87-3.787-12.09-11.107-.99-2.523-1.73-6.562-1.73-11.357v-75.218h-32.34v86.323zm151.056 70.423v-33.318h23.696V434.95h-23.696v-56.286c0-14.387 5.924-17.92 12.342-17.92 3.21 0 5.677.25 8.392.757l.247-25.74c-4.443-1.26-11.108-2.27-19.747-2.27-9.38 0-17.525 2.27-23.202 7.83-6.664 6.56-10.367 15.9-10.367 35.34v58.31h-14.31v23.48h14.32v25.5l32.33 7.82zm93.054-83.547c0 15.902-3.95 28.27-13.577 28.27-10.614 0-14.81-15.902-15.057-28.27h28.633zm-28.88-23.222c.493-19.182 11.354-26.25 25.67-26.25 9.132 0 17.278 2.02 22.955 4.04l4.444-23.728c-8.4-3.28-20.99-5.552-33.33-5.552-32.83 0-50.85 22.21-50.85 60.83 0 41.395 20.98 66.13 48.37 66.13 25.92 0 40.97-20.95 40.97-58.305 0-8.84-.25-13.64-.99-17.17h-57.26zm76.264 36.346c0 12.37-.493 25.747-.988 37.106h28.14l1.728-17.922h.74c5.43 13.125 15.057 19.94 23.942 19.94 3.21 0 4.937 0 6.912-.504v-32.813c-1.975.505-4.197.505-6.912.505-6.91 0-16.043-4.796-19.746-17.67-.74-2.775-1.234-7.066-1.234-12.366v-62.598h-32.582v86.323z" fill="#2b394c"/><path d="M724.333 404.41h.493c2.222 7.068 3.95 12.116 6.17 17.163l15.552 36.853h34.804l-29.126-51.744 30.853-71.684h-36.04l-17.28 50.734-5.43-10.6v-40.134h-32.34v174.666h32.33V404.41zm122.424-9.34c-10.86-.25-25.67-3.785-25.67-20.95 0-12.367 6.665-16.91 11.602-16.91 5.18 0 11.1 3.28 13.32 10.6.49 1.768.74 3.787.74 5.807v21.454zM851.2 335l-1.728 12.115h-.493c-6.67-9.59-16.05-14.134-26.66-14.134-18.27 0-31.84 15.65-31.84 37.61 0 32.31 27.89 45.69 55.29 45.94v2.78c0 9.59-5.68 16.66-17.04 16.66-9.63 0-17.53-2.52-24.69-7.07l-5.93 22.22c6.66 4.04 20.73 9.34 37.52 9.34 36.77 0 42.7-26.25 42.7-51.24v-45.94c0-9.84.49-19.94 1.97-28.27h-29.1zm49.115 29.78c4.688-3.025 13.575-6.56 21.72-6.56 8.392 0 13.082 3.786 13.082 11.105 0 6.31-3.456 10.35-14.068 16.66-19.75 11.358-24.44 24.232-24.44 35.59 0 22.212 15.55 38.87 39.74 38.87 10.12 0 18.02-2.525 24.43-5.553l-5.68-24.23c-4.69 2.776-10.37 5.048-16.79 5.048-8.15 0-12.1-5.048-12.1-10.602 0-5.55 2.71-8.58 14.07-15.396 17.77-10.348 24.44-23.22 24.44-37.356 0-25.24-17.78-38.87-42.71-38.87-10.12 0-21.97 2.776-27.65 7.067l5.92 24.232zm79.97 0c4.688-3.025 13.575-6.56 21.72-6.56 8.392 0 13.082 3.786 13.082 11.105 0 6.31-3.456 10.35-14.068 16.66-19.75 11.358-24.44 24.232-24.44 35.59 0 22.212 15.55 38.87 39.74 38.87 10.12 0 18.02-2.525 24.43-5.553l-5.68-24.23c-4.69 2.776-10.37 5.048-16.79 5.048-8.15 0-12.1-5.048-12.1-10.602 0-5.55 2.71-8.58 14.07-15.396 17.77-10.348 24.43-23.22 24.43-37.356 0-25.24-17.78-38.87-42.71-38.87-10.12 0-21.97 2.776-27.65 7.067l5.92 24.232zm130.567 30.29c-10.86-.25-25.67-3.785-25.67-20.95 0-12.367 6.665-16.91 11.602-16.91 5.183 0 11.107 3.28 13.33 10.6.492 1.768.738 3.787.738 5.807v21.454zm4.444-60.072l-1.73 12.115h-.492c-6.664-9.59-16.044-14.134-26.658-14.134-18.266 0-31.84 15.64-31.84 37.6 0 32.31 27.89 45.68 55.288 45.93v2.77c0 9.59-5.676 16.66-17.03 16.66-9.628 0-17.525-2.53-24.684-7.07l-5.924 22.21c6.666 4.04 20.734 9.34 37.52 9.34 36.776 0 42.7-26.25 42.7-51.24v-45.93c0-9.85.495-19.94 1.976-28.27h-29.126z" fill="#32ac4c"/><path d="M285.523 262.94c0-.957.147-1.84.295-2.65 1.177-4.49 5.077-7.58 9.713-7.58 6.85 0 10.82 5.593 10.82 13.762 0 7.138-3.75 13.246-10.59 13.246-4.41 0-8.53-3.164-9.78-8.022-.22-.81-.44-1.765-.44-2.648v-6.11zm-6.402 9.493c0 4.562-.14 8.24-.29 11.627h5.82l.3-6.108h.15c2.65 4.342 6.85 6.917 12.66 6.917 8.61 0 15.09-7.29 15.09-18.11 0-12.81-7.8-19.14-16.19-19.14-4.71 0-8.83 2.06-10.96 5.59h-.15v-19.35h-6.4v38.56zm60.65-5.813c-7.06.146-15.08-1.105-15.08-8.022 0-4.195 2.8-6.182 6.11-6.182 4.64 0 7.58 2.944 8.61 5.96.22.663.37 1.4.37 2.062v6.18zm.96-18.178l-.51 4.49H340c-1.988-2.797-5.816-5.3-10.893-5.3-7.21 0-10.89 5.078-10.89 10.23 0 8.61 7.652 13.32 21.414 13.246v.736c0 2.944-.81 8.242-8.09 8.242-3.31 0-6.77-1.03-9.27-2.65l-1.47 4.27c2.95 1.913 7.21 3.164 11.7 3.164 10.89 0 13.54-7.433 13.54-14.57v-13.32c0-3.092.15-6.11.59-8.538h-5.88zm17.52 35.618l7.8-21.047c.81-2.355 1.7-5.152 2.28-7.286h.15c.66 2.134 1.4 4.857 2.28 7.433l7.07 20.9h6.85l-9.71-25.39c-4.64-12.215-7.8-18.47-12.22-22.297-3.16-2.797-6.32-3.9-7.94-4.195l-1.62 5.446c1.62.515 3.75 1.545 5.67 3.165 1.77 1.39 3.98 3.9 5.45 7.21.3.66.52 1.17.52 1.54 0 .36-.15.88-.44 1.69l-13.18 32.83h7.06zm32.31-9.64c0 3.68-.07 6.696-.29 9.64h5.67l.3-5.74h.23c1.99 3.386 5.3 6.55 11.19 6.55 4.86 0 8.54-2.944 10.08-7.14h.15c1.1 1.988 2.5 3.534 3.97 4.638 2.14 1.618 4.49 2.502 7.88 2.502 4.71 0 11.7-3.092 11.7-15.455v-20.973h-6.33v20.164c0 6.844-2.5 10.965-7.73 10.965-3.68 0-6.55-2.72-7.65-5.88-.3-.88-.52-2.06-.52-3.24v-22h-6.32v21.34c0 5.67-2.51 9.79-7.44 9.79-4.05 0-6.99-3.24-8.02-6.47-.37-.95-.52-2.06-.52-3.16v-21.49h-6.33v25.98zm83.98-4.71c.08 4.12-1.69 10.524-8.98 10.524-6.55 0-9.42-6.035-9.93-10.524h18.92zm-18.98-4.637c.15-8.757 5.74-12.363 12.22-12.363 4.64 0 7.43.81 9.86 1.84l1.11-4.636c-2.28-1.03-6.18-2.208-11.85-2.208-10.96 0-17.51 7.212-17.51 17.957 0 10.743 6.33 19.206 16.71 19.206 11.63 0 14.72-10.23 14.72-16.78 0-1.33-.14-2.36-.22-3.02h-25.02zm33.27 9.347c0 3.68-.07 6.696-.29 9.64h5.74l.37-5.887h.15c1.77 3.385 5.89 6.697 11.78 6.697 4.93 0 12.59-2.944 12.59-15.16v-21.268h-6.47v20.532c0 5.74-2.13 10.523-8.24 10.523-4.27 0-7.58-3.017-8.68-6.623-.29-.81-.44-1.913-.44-3.017v-21.415h-6.47v25.978zm48.36 19.87v-10.23h9.28v-4.93h-9.27v-19.208c0-4.415 1.26-6.917 4.86-6.917 1.69 0 2.95.22 3.75.44l.3-4.856c-1.25-.52-3.24-.89-5.74-.89-3.01 0-5.44.95-6.99 2.72-1.84 1.91-2.5 5.07-2.5 9.27v19.43h-5.52v4.93h5.52v8.53l6.33 1.69zm50.93-27.67c-7.06.146-15.08-1.105-15.08-8.022 0-4.195 2.8-6.182 6.11-6.182 4.64 0 7.58 2.944 8.61 5.96.22.663.37 1.4.37 2.062v6.18zm.96-18.178l-.51 4.49h-.22c-1.98-2.797-5.81-5.3-10.89-5.3-7.21 0-10.89 5.078-10.89 10.23 0 8.61 7.65 13.32 21.42 13.246v.736c0 2.944-.81 8.242-8.09 8.242-3.31 0-6.77-1.03-9.27-2.65l-1.47 4.27c2.94 1.913 7.21 3.164 11.7 3.164 10.89 0 13.54-7.433 13.54-14.57v-13.32c0-3.092.15-6.11.59-8.538h-5.89zm41.14 1.325c-1.69-.883-5.44-2.06-10.22-2.06-10.74 0-17.73 7.284-17.73 18.177 0 10.964 7.51 18.912 19.14 18.912 3.83 0 7.21-.956 8.98-1.84l-1.47-5.004c-1.54.883-3.97 1.692-7.5 1.692-8.17 0-12.58-6.034-12.58-13.467 0-8.24 5.3-13.32 12.36-13.32 3.68 0 6.11.957 7.95 1.767l1.11-4.857zm32.54 0c-1.69-.883-5.44-2.06-10.23-2.06-10.74 0-17.73 7.284-17.73 18.177 0 10.964 7.51 18.912 19.14 18.912 3.83 0 7.21-.956 8.98-1.84l-1.47-5.004c-1.55.883-3.97 1.692-7.51 1.692-8.17 0-12.58-6.034-12.58-13.467 0-8.24 5.3-13.32 12.36-13.32 3.68 0 6.11.957 7.95 1.767l1.11-4.857zm29.74 19.943c.08 4.12-1.69 10.524-8.97 10.524-6.55 0-9.42-6.035-9.94-10.524h18.91zm-18.98-4.637c.15-8.757 5.74-12.363 12.22-12.363 4.64 0 7.44.81 9.86 1.84l1.11-4.636c-2.28-1.03-6.18-2.208-11.84-2.208-10.96 0-17.51 7.212-17.51 17.957 0 10.743 6.33 19.206 16.71 19.206 11.63 0 14.72-10.23 14.72-16.78 0-1.33-.14-2.36-.22-3.02H673.5zm39.67-2.133c0-.957.15-1.84.3-2.65 1.18-4.49 5.08-7.58 9.72-7.58 6.85 0 10.82 5.593 10.82 13.762 0 7.138-3.75 13.246-10.6 13.246-4.42 0-8.54-3.164-9.79-8.022-.22-.81-.44-1.765-.44-2.648v-6.11zm-6.4 9.493c0 4.562-.15 8.24-.29 11.627h5.82l.29-6.108h.15c2.65 4.342 6.84 6.917 12.66 6.917 8.61 0 15.09-7.29 15.09-18.11 0-12.81-7.8-19.14-16.19-19.14-4.71 0-8.83 2.06-10.96 5.59h-.15v-19.35h-6.4v38.56zm49.68 21.857v-10.23h9.27v-4.93h-9.27v-19.208c0-4.415 1.25-6.917 4.86-6.917 1.69 0 2.95.22 3.75.44l.3-4.856c-1.25-.52-3.24-.89-5.74-.89-3.02 0-5.44.95-6.99 2.72-1.84 1.91-2.5 5.07-2.5 9.27v19.43h-5.52v4.93h5.52v8.53l6.33 1.69zm35.33-27.67c-7.06.146-15.08-1.105-15.08-8.022 0-4.195 2.8-6.182 6.11-6.182 4.64 0 7.58 2.944 8.61 5.96.22.663.37 1.4.37 2.062v6.18zm.96-18.178l-.51 4.49h-.22c-1.98-2.797-5.81-5.3-10.89-5.3-7.21 0-10.89 5.078-10.89 10.23 0 8.61 7.66 13.32 21.42 13.246v.736c0 2.944-.81 8.242-8.09 8.242-3.31 0-6.77-1.03-9.27-2.65l-1.47 4.27c2.95 1.913 7.22 3.164 11.7 3.164 10.9 0 13.55-7.433 13.55-14.57v-13.32c0-3.092.145-6.11.59-8.538h-5.89zm15.75 25.978c0 3.68-.07 6.696-.29 9.64h5.74l.37-5.887h.15c1.76 3.385 5.89 6.697 11.77 6.697 4.93 0 12.59-2.944 12.59-15.16v-21.268h-6.47v20.532c0 5.74-2.13 10.523-8.24 10.523-4.27 0-7.58-3.017-8.68-6.623-.3-.81-.44-1.913-.44-3.017v-21.415h-6.48v25.978zm66.24-24.653c-1.69-.883-5.44-2.06-10.23-2.06-10.74 0-17.73 7.284-17.73 18.177 0 10.964 7.51 18.912 19.14 18.912 3.826 0 7.21-.956 8.978-1.84l-1.47-5.004c-1.54.883-3.97 1.692-7.5 1.692-8.17 0-12.583-6.034-12.583-13.467 0-8.24 5.295-13.32 12.36-13.32 3.68 0 6.107.957 7.946 1.767l1.107-4.857zm29.74 19.943c.07 4.12-1.69 10.524-8.98 10.524-6.55 0-9.42-6.035-9.93-10.524h18.91zm-18.99-4.637c.15-8.757 5.74-12.363 12.22-12.363 4.64 0 7.44.81 9.86 1.84l1.11-4.636c-2.28-1.03-6.18-2.208-11.85-2.208-10.96 0-17.51 7.212-17.51 17.957 0 10.743 6.33 19.206 16.71 19.206 11.628 0 14.72-10.23 14.72-16.78 0-1.33-.15-2.36-.22-3.02H885.5zm47.99-10.008c1.92-1.25 5.3-2.576 8.54-2.576 4.71 0 6.92 2.35 6.92 5.29 0 3.09-1.84 4.78-6.62 6.55-6.4 2.28-9.42 5.81-9.42 10.08 0 5.74 4.64 10.45 12.29 10.45 3.61 0 6.77-1.03 8.76-2.21l-1.62-4.71c-1.4.88-3.98 2.06-7.29 2.06-3.83 0-5.96-2.21-5.96-4.86 0-2.95 2.14-4.27 6.77-6.04 6.18-2.36 9.35-5.45 9.35-10.75 0-6.26-4.86-10.67-13.32-10.67-3.9 0-7.51.95-10.01 2.42l1.62 4.93zm32.39 28.995l7.8-21.047c.81-2.355 1.7-5.152 2.28-7.286h.15c.66 2.134 1.4 4.857 2.28 7.433l7.07 20.9h6.85l-9.71-25.39c-4.64-12.215-7.8-18.47-12.22-22.297-3.16-2.797-6.33-3.9-7.942-4.195l-1.62 5.446c1.62.515 3.75 1.545 5.665 3.165 1.766 1.39 3.974 3.9 5.445 7.21.3.66.52 1.17.52 1.54 0 .36-.15.88-.44 1.69l-13.17 32.82h7.06zm30.99-28.995c1.92-1.25 5.3-2.576 8.54-2.576 4.71 0 6.92 2.35 6.92 5.29 0 3.09-1.84 4.78-6.63 6.55-6.4 2.28-9.42 5.81-9.42 10.08 0 5.74 4.64 10.45 12.29 10.45 3.61 0 6.77-1.03 8.76-2.21l-1.62-4.71c-1.39.88-3.97 2.06-7.28 2.06-3.83 0-5.96-2.21-5.96-4.86 0-2.95 2.13-4.27 6.77-6.04 6.18-2.36 9.35-5.45 9.35-10.75 0-6.26-4.86-10.67-13.32-10.67-3.9 0-7.51.95-10.01 2.42l1.62 4.93zm37.83 39.225v-10.23h9.27v-4.93h-9.27v-19.208c0-4.415 1.25-6.917 4.86-6.917 1.7 0 2.95.22 3.76.44l.29-4.856c-1.25-.52-3.23-.89-5.74-.89-3.01 0-5.44.95-6.99 2.72-1.84 1.91-2.5 5.07-2.5 9.27v19.43h-5.52v4.93h5.52v8.53l6.33 1.69zm38.72-24.58c.07 4.12-1.7 10.524-8.98 10.524-6.55 0-9.42-6.035-9.94-10.524h18.916zm-18.99-4.637c.15-8.757 5.74-12.363 12.215-12.363 4.63 0 7.43.81 9.86 1.84l1.1-4.636c-2.28-1.03-6.18-2.208-11.846-2.208-10.96 0-17.51 7.212-17.51 17.957 0 10.743 6.33 19.206 16.703 19.206 11.63 0 14.72-10.23 14.72-16.78 0-1.33-.143-2.36-.22-3.02h-25.02zm33.27 9.347c0 3.68-.075 6.696-.3 9.64h5.67l.297-5.74h.22c1.99 3.386 5.3 6.55 11.19 6.55 4.86 0 8.54-2.944 10.09-7.14h.15c1.107 1.988 2.5 3.534 3.975 4.638 2.13 1.618 4.49 2.502 7.873 2.502 4.71 0 11.7-3.092 11.7-15.455v-20.973h-6.33v20.164c0 6.844-2.5 10.965-7.726 10.965-3.68 0-6.55-2.72-7.655-5.88-.298-.88-.52-2.06-.52-3.24v-22H1110v21.34c0 5.67-2.505 9.79-7.435 9.79-4.05 0-6.99-3.24-8.02-6.47-.37-.95-.515-2.06-.515-3.16v-21.49h-6.33v25.98z" fill="#4f4c4d"/></g></svg>