<svg xmlns="http://www.w3.org/2000/svg" width="210mm" height="210mm" viewBox="0 0 744.09448819 744.09448819"><path d="M720.356 224.42c-6.6-.412-16.183 9.907-45.912 43.44l-36.03 40.634-1.224-36.89c-.868-26.165-2.198-38.068-4.58-40.93-4.08-4.9-15.8-5.303-19.64-.675-1.965 2.36-2.6 21.36-2.138 64.18l.655 60.82 5.967 2.97c3.944 1.96 7.425 2.19 10.274.66 2.37-1.27 20.613-20.7 40.543-43.18l36.24-40.87.65 39.04c.7 42.03 1.7 45.163 14.37 45.163 11.92 0 13.14-6.26 13.14-67.865 0-53.714-.28-57.26-4.89-61.873-2.7-2.7-4.82-4.507-7.4-4.668zm-677.924 2.218l-7.993 7.138-8 7.134-.76 45.376c-.71 42.34-1.08 45.477-5.5 46.878-9.75 3.096-12.1 8.186-12.1 26.252 0 12.737 1.08 18.574 4.05 21.854 4.97 5.494 13.87 5.79 19.02.632 2.11-2.116 3.84-7.624 3.84-12.24v-8.39h82.59l1.43 8.782c1.86 11.508 5.61 15.696 14.06 15.696 10.19 0 14.52-7.864 14.52-26.362 0-13.17-.89-16.374-6-21.486-3.31-3.305-7.71-6.005-9.79-6.005-3.29 0-3.79-6.417-3.79-48.785 0-41.084-.61-49.39-3.85-52.63-3.177-3.174-10.65-3.844-42.8-3.844zm157.463 0c-30.725 0-32.62.285-36.23 5.44-3.18 4.54-3.81 14.705-3.81 61.308v55.866l6.01 6.01c5.64 5.642 7.616 6.005 32.433 5.97 16.286-.02 28.773-1.218 32.544-3.116 4.216-2.12 6.354-5.463 6.87-10.743 1.14-11.647-6.15-15.476-29.446-15.476H189.23v-29.375h18.22c16.052 0 18.672-.647 22.03-5.44 5.036-7.19 4.806-10.7-1.085-16.59-3.964-3.964-8.16-4.896-22.03-4.896H189.23v-22.03h19.035c22.102 0 29.92-3.75 29.92-14.34 0-11.515-3.267-12.59-38.29-12.59zm73.43.105c-3.817-.13-8.007 1.167-11.076 3.945-4.1 3.707-4.48 8.967-4.48 61.952 0 59.237.68 63.923 9.79 66.762 4.09 1.277 9.46-.138 14.07-3.71 2.1-1.624 3.06-10.34 3.06-27.768v-25.402h63.64v24.01c0 26.686 2.46 32.904 13.03 32.904 13.69 0 13.89-.924 13.89-64.72 0-35.72-.99-60.46-2.54-63.344-3.15-5.874-13.78-6.24-19.92-.684-3.66 3.308-4.48 7.798-4.48 24.48v20.428h-63.64V255.85c0-10.86-1.14-21.874-2.54-24.478-1.57-2.937-5.02-4.497-8.84-4.63zm136.92.192c-11.92-.408-12.95 7.304-12.914 63.28.02 28.984.74 55.296 1.59 58.473 2.58 9.628 13.7 12.817 41.22 11.828 16.28-.585 27.02-2.204 32.07-4.834 10.95-5.7 22.39-19.717 25.49-31.24 2.12-7.864 1.9-12.657-1.03-22.742-6.59-22.667-23.6-33.448-52.77-33.448h-17.22l-.03-14.075c-.05-18.458-3.96-26.097-13.86-27.065-.89-.088-1.74-.15-2.53-.177zm157.39.13c-4.158-.033-8.827.002-13.94.11-32.055.67-32.697.797-35.734 6.807-3.79 7.518-4.43 106.48-.75 116.178 4.44 11.66 18.55 12.482 24.46 1.425 1.46-2.72 2.5-24.223 2.5-51.353v-46.667h19.7c17.5 0 20.34-.654 25.54-5.852 6.1-6.096 6.12-13.59.06-18.622-1.47-1.22-9.35-1.93-21.83-2.02zm-515.488 26.5h48.958v78.333H52.147V292.73zm374.526 41.614h15.58c19.668 0 28.48 5.73 28.48 18.53 0 13.7-6.64 18.18-26.925 18.18h-17.135v-18.36z" fill="#04a"/><path d="M83.066 408.12c-18.653 0-21.974.53-31.65 5.066-14.285 6.695-27.885 19.697-34.71 33.175-5.022 9.92-5.535 12.68-5.535 29.88 0 17.61.45 19.85 6.23 31.6 7.02 14.25 17.2 24.21 31.68 30.97 16.72 7.8 40.24 9.61 54.31 4.18 6.36-2.45 8.85-10.02 4.67-14.2-2.44-2.44-3.98-2.52-9.96-.55-4.22 1.4-12.5 1.98-20.52 1.46-21.73-1.42-37.01-11.19-45.89-29.32-12.82-26.22-1.09-59.71 25.41-72.56 12.44-6.03 37.12-6.2 49.9-.34 12.65 5.79 23.16 16.06 28.04 27.4 3.51 8.15 4.09 12.26 3.38 24.09-.98 16.43-7.03 31-12.45 29.97-2.82-.54-3.32-4.532-4.15-33.66-.88-30.77-1.2-33.095-4.6-33.75-2.01-.384-4.76.816-6.11 2.665-2.28 3.118-2.71 3.137-5.87.28-5.52-5-16.73-8.91-25.43-8.86-11.21.055-22.16 5.52-30.43 15.176-15.08 17.62-14.24 38.54 2.22 55 13.7 13.7 30.25 16.625 46.748 8.26 11.03-5.6 10.245-5.464 10.245-1.756 0 1.64 2.487 5.47 5.527 8.51 8.4 8.4 17.54 7.75 26.73-1.91 9.66-10.15 14.09-23.76 13.907-42.67-.278-28.24-13.556-49.74-38.2-61.87-11.935-5.876-13.716-6.208-33.447-6.208zm551.887 21.746c-8.836 0-10.162 4.02-10.15 30.86.01 28.385 1.422 35.165 9.968 47.936 6.31 9.42 21.97 20.447 31.37 22.085 8.64 1.504 22.64-.346 31.16-4.113 10.31-4.56 20.32-14.465 25.57-25.302 3.61-7.446 4.05-11.586 4.05-37.647 0-30.908-.75-33.82-8.75-33.82-8.93 0-10.16 3.912-10.16 32.376 0 29.07-1.19 33.49-11.36 42.05-13.31 11.21-30.24 10.55-42.44-1.65-8.66-8.66-10.46-16.3-10.48-44.49-.01-25.07-.99-28.27-8.76-28.27zm-33.702.02c-17.98.043-39.87 17.617-45.48 36.53-4.02 13.534-3.93 55.57.12 61.36 3.23 4.608 6.71 5.242 12.31 2.245 3.32-1.77 3.66-4.17 3.67-26 .01-13.22.96-27.43 2.11-31.56 2.88-10.38 14.04-21.14 23.51-22.69 12.72-2.08 15.99-4.13 15.99-10.02 0-7.31-3.18-9.87-12.2-9.85zM79.79 450.674c16.618.013 27.606 10.64 27.606 26.696 0 19.366-20.6 33.306-37.76 25.546-17.72-8.016-20.64-33.035-5.42-46.4 5.435-4.77 8.3-5.848 15.575-5.842zm450.463 58.614c-6.777 0-9.455 3.294-9.455 11.63 0 9.646 6.73 13.663 15.25 9.103 2.623-1.4 3.66-3.97 3.66-9.07 0-8.36-2.673-11.65-9.455-11.65z" fill="#f60"/><path d="M429.9 396.564c-1.37.063-2.732.8-4.947 2.25-6.54 4.286-6.952 14.775-.746 19.12 5.28 3.7 7.136 3.686 12.503-.073 6.19-4.33 5.132-15.61-1.828-19.5-2.23-1.24-3.61-1.85-4.98-1.79zm34.875 8.714c-10.533 0-10.73.886-10.73 48.037 0 47.878.774 52.017 11.915 63.76 8.345 8.797 19.288 13.595 29.674 13.01 7.22-.404 8.873-1.27 11.023-5.775 2.176-4.56 2.106-5.95-.5-9.928-1.92-2.927-4.827-4.627-7.907-4.627-7.392 0-16.576-5.096-20.18-11.195-2.77-4.69-3.224-11.18-3.224-45.938 0-43.982-.717-47.344-10.07-47.344zM182.59 427.702c-1.345-.085-2.714.375-4.655 1.342l-4.7 2.344-.51 46.087c-.45 40.884-.148 46.48 2.66 49.58 3.922 4.337 9.695 4.488 14.245.37 3.103-2.808 3.46-6.58 3.46-36.74 0-36.3.34-37.62 10.813-41.602 6.75-2.566 9.573-2.146 13.77 2.05 3.5 3.502 3.783 6.303 3.783 37.82 0 31.516.28 34.317 3.78 37.82 4.6 4.597 10.8 4.86 15.45.652 3.102-2.808 3.46-6.58 3.46-36.74 0-36.3.34-37.62 10.815-41.602 6.75-2.566 9.58-2.146 13.77 2.05 3.51 3.505 3.78 6.306 3.78 38.146 0 37.88.95 41.27 11.53 41.27 9.92 0 11.17-4.66 11.12-41.55-.03-28.06-.57-34.32-3.51-40.79-4.27-9.42-13.2-17.17-22.72-19.73-8.28-2.23-22.59 1.16-28.85 6.83-2.99 2.7-4.33 2.92-6.91 1.1-12.57-8.88-24.53-10.97-35.91-6.25-4.77 1.97-6.43 1.88-10.15-.56-1.84-1.21-3.16-1.84-4.5-1.92zm246.703.164c-2.18.046-4.4 1.04-6.92 2.99-1.777 1.375-2.366 13.26-2.366 47.794 0 39.262.432 46.394 2.97 48.932 3.855 3.854 10.013 3.787 14.37-.157 3.167-2.864 3.46-6.933 3.46-48.082v-44.955l-4.848-3.81c-2.36-1.85-4.49-2.757-6.67-2.71zm-75.587.058c-24.952.023-47.528 19.034-50.396 46.828-2.068 20.033 11.078 42.136 30.584 51.43 12.204 5.813 29.857 5.456 42.62-.864 4.904-2.43 8.78-3.397 9.15-2.29 2.45 7.334 11.82 9.67 17.646 4.397 3.165-2.864 3.462-6.934 3.462-48.082v-44.955l-4.85-3.81c-5.628-4.426-12.066-3.14-14.873 2.975-1.74 3.786-1.86 3.776-12.21-.96-6.98-3.196-14.16-4.676-21.14-4.67zm.17 20.176c8.173-.13 16.59 3.105 23.272 10.5 10.236 11.33 11.29 24.074 3.102 37.538-8.28 13.615-28.592 18.154-41.705 9.317-9.563-6.444-14.976-15.617-14.976-25.366 0-19.24 14.7-31.75 30.3-31.99zm167.945 78.278c.25.426.51.824.8 1.187.03-.107.1-.39.18-.783-.32-.134-.64-.27-.97-.404z" fill="#04a"/></svg>