<svg xmlns="http://www.w3.org/2000/svg" viewBox="0 0 809 809" height="809" width="809" id="Layer_1"><style id="style3">.st0{fill-rule:evenodd;clip-rule:evenodd;fill:#4DB45E;} .st1{fill-rule:evenodd;clip-rule:evenodd;fill:url(#SVGID_1_);}</style><g id="g5"><path id="path7" d="M218.572 291.66v.1c-.1 0-31.6-.1-40 30-7.7 27.6-29.4 103.8-30 105.9h-6s-22.2-77.9-30-106c-8.4-30.1-40-30-40-30h-72v229h72v-136h6l42 136h50l42-135.9h6v135.9h72v-229h-72z" class="st0" clip-rule="evenodd" fill="#4db45e" fill-rule="evenodd"/></g><g id="g9"><path id="path11" d="M481.572 291.66s-21.1 1.9-31 24l-51 112h-6v-136h-72v229h68s22.1-2 32-24l50-112h6v136h72v-229h-68z" class="st0" clip-rule="evenodd" fill="#4db45e" fill-rule="evenodd"/></g><g id="g13"><path id="path15" d="M581.572 395.66v125h72v-73h78c34 0 62.8-21.7 73.5-52h-223.5z" class="st0" clip-rule="evenodd" fill="#4db45e" fill-rule="evenodd"/></g><g id="g17"><linearGradient y2="47" x2="809" y1="47" x1="570.919" gradientUnits="userSpaceOnUse" id="SVGID_1_" gradientTransform="translate(.572 291.66)"><stop id="stop20" offset=".3" stop-color="#00B4E6"/><stop id="stop22" offset="1" stop-color="#088CCB"/></linearGradient><path id="path24" d="M731.572 291.66h-160.1c8 43.6 40.7 78.6 83 90 9.6 2.6 19.7 4 30.1 4h123.4c1.1-5.2 1.6-10.5 1.6-16 0-43.1-34.9-78-78-78z" class="st1" clip-rule="evenodd" fill="#2a7fff" fill-rule="evenodd"/></g></svg>