<svg xmlns="http://www.w3.org/2000/svg" version="1" width="150666.663" height="150666.663" viewBox="0 0 39.863888 39.863888"><path d="M1.02 17.583h.284l.227-.056.23-.114.17-.113.12-.17.12-.17.06-.228.06-.227v-.227l-.052-.227-.113-.17-.11-.11-.17-.17-.226-.11-.286-.05H.17v3.35l.226.12.17-.11v-1.2h.454zm-.454-1.758h.794l.17.113.114.057.114.227.056.283v.17l-.056.17-.057.114-.11.11-.22.11-.34.05-.45-.06v-1.36zm32.91-.17l-.114-.17h-.284L31.83 18.15l-1.25-2.666h-.226l-.113.17.46 1.022-.68 1.475-1.25-2.66h-.28l-.11.17 1.48 3.18h.29l.796-1.7.795 1.71H32l1.475-3.18zm-16.285-.228h-.28v3.348l.23.113.17-.113v-2.497l1.99 2.554h.29v-3.29l-.22-.115-.17.114v2.5l-1.99-2.61zM6.53 16.79v1.985l.227.113.17-.113V16.79l1.76-.965v-.227l-.227-.114-1.702.965L5 15.48l-.17.113v.227l1.702.965zm31.093 0v1.985l.227.113.17-.113V16.79l1.76-.965v-.227l-.228-.114-1.703.965-1.71-.97-.23.11v.22l1.7.96zM4.99 18.83l.227.056.11-.227-1.475-3.18H3.57L2.1 18.66l.114.228.283-.056.34-.68H4.65l.343.68zm-1.248-2.667l.737 1.59H2.95l.794-1.59zM16.17 18.83l.226.056.114-.227-1.475-3.18h-.284l-1.47 3.18.12.22.29-.06.34-.68h1.82l.34.68zm-1.25-2.667l.74 1.59h-1.533l.794-1.59zm21.108 2.667l.227.056.17-.227-1.53-3.18h-.228l-1.532 3.17.17.22.227-.06.34-.68h1.816l.34.68zm-1.248-2.667l.738 1.59h-1.476l.738-1.59zm-13.107.624v1.985l.227.113.17-.113V16.79l1.703-.965v-.227l-.17-.114-1.703.965-1.76-.97-.17.11v.22l1.703.96z" fill="#282829"/><path d="M1.02 17.583h.284l.227-.056.23-.114.17-.113.12-.17.12-.17.06-.228.06-.227v-.227l-.052-.227-.113-.17-.11-.11-.17-.17-.226-.11-.286-.05H.17v3.35l.226.12.17-.11v-1.2h.454" fill="none"/><path d="M.566 15.825h.794l.17.113.114.057.114.227.056.283v.17l-.056.17-.057.114-.11.11-.22.11-.34.05-.45-.06v-1.36m32.91-.17l-.11-.17h-.28l-1.25 2.67-1.25-2.67h-.22l-.113.17.46 1.02-.68 1.47-1.25-2.664h-.29l-.113.17 1.476 3.177h.28l.795-1.7.79 1.702H32l1.475-3.18m-16.285-.22h-.283v3.346l.227.113.17-.115v-2.49l1.986 2.552h.284v-3.29l-.227-.116-.17.11v2.5l-1.986-2.61M6.53 16.79v1.985l.227.113.17-.113V16.79l1.76-.965v-.227l-.226-.114-1.7.965L5 15.48l-.17.113v.227l1.7.965m31.09.002v1.984l.228.12.17-.11V16.8l1.76-.966v-.23l-.228-.113-1.704.97-1.702-.97-.227.12v.23l1.702.966M4.99 18.83l.227.056.11-.227-1.475-3.17H3.57L2.1 18.66l.114.228.283-.056.34-.68H4.65l.343.68" fill="none"/><path d="M3.744 16.165l.737 1.59H2.95l.794-1.59m12.426 2.667l.226.056.114-.227-1.475-3.17h-.284l-1.47 3.18.12.23.29-.05.34-.68h1.82l.34.68" fill="none"/><path d="M14.92 16.165l.74 1.59h-1.533l.794-1.59m21.11 2.667l.23.056.17-.227-1.53-3.17h-.23l-1.53 3.18.17.23.23-.05.34-.68h1.82l.34.68" fill="none"/><path d="M34.78 16.165l.738 1.59h-1.476l.738-1.59m-13.107.625v1.985l.227.113.17-.113V16.79l1.703-.965v-.227l-.17-.114-1.703.965-1.76-.97-.17.11v.22l1.703.96" fill="none"/><path d="M33.078 8.448l-.624-.34-6.298 3.63-6.298-3.63-.625.34v.738l6.3 3.63v7.264l.623.397.624-.397v-7.263l6.298-3.63v-.74z" fill="#ef5182"/><path d="M25.475 21.67l-.624-.342-6.29 3.632-6.3-3.632-.62.34v.738l6.25 3.632V33.3l.68.398.63-.398v-7.262l6.3-3.632v-.737z" fill="#8fc73f"/><path d="M17.19 8.108l-6.297 3.63-6.298-3.63-.625.34v.738l6.3 3.63v7.264l.623.397.624-.397v-7.263l6.298-3.63v-.74l-.624-.34z" fill="#fcc649"/></svg>