<?xml version="1.0" encoding="UTF-8" standalone="no"?>
<svg
   xmlns:dc="http://purl.org/dc/elements/1.1/"
   xmlns:cc="http://creativecommons.org/ns#"
   xmlns:rdf="http://www.w3.org/1999/02/22-rdf-syntax-ns#"
   xmlns:svg="http://www.w3.org/2000/svg"
   xmlns="http://www.w3.org/2000/svg"
   xmlns:sodipodi="http://sodipodi.sourceforge.net/DTD/sodipodi-0.dtd"
   xmlns:inkscape="http://www.inkscape.org/namespaces/inkscape"
   viewBox="0 0 504 504"
   id="svg2"
   version="1.1"
   inkscape:version="0.91 r13725"
   sodipodi:docname="paypal.svg">
  <metadata
     id="metadata24">
    <rdf:RDF>
      <cc:Work
         rdf:about="">
        <dc:format>image/svg+xml</dc:format>
        <dc:type
           rdf:resource="http://purl.org/dc/dcmitype/StillImage" />
      </cc:Work>
    </rdf:RDF>
  </metadata>
  <defs
     id="defs22" />
  <sodipodi:namedview
     pagecolor="#ffffff"
     bordercolor="#666666"
     borderopacity="1"
     objecttolerance="10"
     gridtolerance="10"
     guidetolerance="10"
     inkscape:pageopacity="0"
     inkscape:pageshadow="2"
     inkscape:window-width="1366"
     inkscape:window-height="705"
     id="namedview20"
     showgrid="false"
     inkscape:zoom="0.46825397"
     inkscape:cx="-64.067796"
     inkscape:cy="252"
     inkscape:window-x="-8"
     inkscape:window-y="-8"
     inkscape:window-maximized="1"
     inkscape:current-layer="svg2" />
  <path
     d="m 341.63529,326.60868 -38.72636,0 c -2.27809,0 -4.55618,2.61194 -5.69577,5.22387 l -15.9444,114.90554 c 0,2.61193 1.13849,3.9179 3.41547,3.9179 l 20.50278,0 c 2.2836,0 3.41989,-1.30597 3.41989,-3.9179 l 4.55617,-32.64375 c 0,-2.61193 2.28361,-5.22387 5.69246,-5.22387 l 12.53224,0 c 26.20075,0 41.00555,-14.36237 44.42544,-43.0893 2.2836,-11.75262 0,-22.19818 -4.55617,-28.72693 -6.82875,-6.52984 -17.07738,-10.44775 -29.60961,-10.44775 m 4.55617,43.09149 c -2.27257,15.66834 -12.5212,15.66834 -22.78086,15.66834 l -6.82875,0 4.55618,-30.0318 c 0,-1.30707 1.13628,-2.61194 3.41988,-2.61194 l 2.28361,0 c 6.83757,0 13.66852,0 17.0884,5.22387 2.27257,1.30597 2.27257,5.22388 2.27257,11.75153"
     id="path4"
     inkscape:connector-curvature="0"
     style="fill:#139ad6" />
  <path
     d="m 62.583484,326.60868 -38.726368,0 c -2.276983,0 -4.556173,2.61194 -5.694664,5.22387 L 2.216949,446.73809 c 0,2.61193 1.138492,3.9179 3.416578,3.9179 l 18.224693,0 c 2.276983,0 4.556173,-2.61194 5.694664,-5.22387 l 4.545141,-31.33778 c 0,-2.61193 2.272571,-5.22387 5.692459,-5.22387 l 12.532234,0 c 26.189721,0 40.994525,-14.36237 44.414413,-43.0893 2.272571,-11.75262 0,-22.19818 -4.556173,-28.72693 -6.839776,-6.52984 -15.952122,-10.44775 -29.620641,-10.44775 m 4.556173,43.09149 c -2.280293,15.66834 -12.532234,15.66834 -22.780865,15.66834 l -5.692458,0 4.556173,-30.0318 c 0,-1.30707 1.136285,-2.61194 3.413268,-2.61194 l 2.278087,0 c 6.833156,0 13.668519,0 17.083994,5.22387 1.136285,1.30488 2.27588,5.22169 1.136285,11.75044 m 112.757006,-1.30378 -18.22469,0 c -1.13628,0 -3.41547,1.30596 -3.41547,2.61193 l -1.13629,6.52875 -1.13628,-2.61194 c -4.55618,-6.52874 -12.53003,-9.13959 -21.64127,-9.13959 -20.50278,0 -38.726373,18.28028 -42.141848,43.09149 -2.280292,13.0564 1.136286,24.80793 6.832054,32.64374 5.692454,7.83363 13.668524,10.44447 23.917154,10.44447 17.08509,0 26.19634,-11.75153 26.19634,-11.75153 l -1.13629,6.52438 c 0,2.61193 1.13629,3.91244 3.41327,3.91244 l 17.08399,0 c 2.2814,0 4.55618,-2.61194 5.69798,-5.22388 l 10.24863,-73.12329 c -1.13629,-1.31143 -3.41548,-3.92337 -4.55617,-3.92337 m -26.18972,41.79099 c -2.27699,11.74825 -10.24864,20.88675 -21.63907,20.88675 -5.69466,0 -10.25084,-2.61194 -12.52892,-5.22388 -2.27919,-3.91572 -3.41768,-9.13959 -3.41768,-15.66834 1.13959,-11.74825 10.25194,-20.89112 20.50277,-20.89112 5.69246,0 9.11235,2.61194 12.52672,5.22387 3.41768,3.91682 4.55618,10.44775 4.55618,15.66834"
     id="path6"
     inkscape:connector-curvature="0"
     style="fill:#263b80" />
  <path
     d="m 457.80998,368.39311 -18.22469,0 c -1.13628,0 -3.41547,1.30596 -3.41547,2.61193 l -1.1396,6.52875 -1.14732,-2.61194 c -4.55617,-6.52874 -12.53223,-9.13959 -21.64458,-9.13959 -20.50829,0 -38.73298,18.28028 -42.14184,43.09149 -2.2836,13.0564 1.13629,24.80793 6.82875,32.64374 5.69245,7.83363 13.66851,10.44447 23.91715,10.44447 17.0884,0 26.18972,-11.75153 26.18972,-11.75153 l -1.13629,6.52438 c 0,2.61193 1.13629,3.91244 3.41106,3.91244 l 17.084,0 c 2.27698,0 4.55617,-2.61194 5.69246,-5.22388 l 10.25194,-73.12329 c -1.13849,-1.31143 -2.27809,-3.92337 -4.55618,-3.92337 m -26.19192,41.79099 c -2.27478,11.74825 -10.24863,20.88456 -21.63796,20.88456 -5.69246,0 -10.24863,-2.61194 -12.52562,-5.22387 -2.2836,-3.919 -3.41989,-9.14287 -3.41989,-15.67162 1.13629,-11.74825 10.24864,-20.88457 20.49727,-20.88457 5.69797,0 9.11234,2.61194 12.53223,5.22388 4.55617,3.91572 5.69246,10.44774 4.55617,15.66724"
     id="path8"
     inkscape:connector-curvature="0"
     style="fill:#139ad6" />
  <path
     d="m 278.98957,368.39311 -19.36098,0 c -2.27919,0 -3.41989,1.30596 -4.55617,2.61193 l -25.05895,44.39637 -11.39595,-41.78443 c -1.14732,-2.61194 -2.2836,-3.91791 -5.70349,-3.91791 l -18.22469,0 c -2.28361,0 -3.41989,2.61194 -3.41989,5.21295 l 20.49726,69.19992 -19.35987,31.3334 c -1.13629,2.61194 0,6.52766 2.28029,6.52766 l 18.22469,0 c 2.27698,0 3.41658,-1.30706 4.55617,-2.61194 l 62.64352,-103.1551 c 3.41989,-3.9179 1.14732,-7.8358 -1.13628,-7.8358"
     id="path10"
     inkscape:connector-curvature="0"
     style="fill:#263b80" />
  <path
     d="m 479.45125,330.52658 -15.9466,117.51857 c 0,2.61193 1.13959,3.91681 3.41768,3.91681 l 15.9455,0 c 2.27809,0 4.55618,-2.61194 5.69467,-5.22387 L 504.508,331.83146 c 0,-2.61194 -1.13849,-3.92337 -3.41658,-3.92337 l -18.21476,0 c -1.13849,-1.31143 -2.27809,0 -3.41658,2.61194"
     id="path12"
     inkscape:connector-curvature="0"
     style="fill:#139ad6" />
  <path
     d="M 333.18927,97.154975 C 321.96322,85.609997 301.11404,79.837508 272.24687,79.837508 l -80.18754,0 c -4.80991,0 -9.62312,4.327728 -11.22606,8.658734 L 148.75252,277.55236 c 0,4.32991 3.19925,7.21616 6.40953,7.21616 l 49.70973,0 12.83009,-70.71573 0,2.88516 c 1.59963,-4.32773 6.40953,-8.65764 11.21944,-8.65764 l 24.04953,0 c 46.51048,0 81.79048,-17.31856 93.01543,-64.94324 l 0,-4.32772 c -1.60293,0 -1.60293,0 0,0 1.60514,-18.75349 -1.60293,-30.30503 -12.83009,-41.845632"
     id="path14"
     inkscape:connector-curvature="0"
     style="fill:#263b80" />
  <path
     d="m 344.41533,139.00825 0,4.32773 c -11.22606,49.06943 -46.50827,64.94433 -93.01764,64.94433 l -24.05615,0 c -4.80991,0 -9.62202,4.32772 -11.22606,8.65873 l -16.02934,88.02991 c 0,2.88515 1.61066,5.7703 6.42056,5.7703 l 41.70057,0 c 4.80991,0 9.61981,-2.88515 9.61981,-7.22381 l 0,-1.44257 8.02019,-44.74171 0,-2.88515 c 0,-4.32773 4.80991,-7.21288 9.61981,-7.21288 l 6.42057,0 c 40.10094,0 72.17066,-14.43669 80.19085,-57.72489 3.21028,-17.32184 1.61066,-33.2011 -8.01136,-43.29913 -1.60294,-2.88515 -4.80991,-5.7703 -9.62202,-7.22381"
     id="path16"
     inkscape:connector-curvature="0"
     style="fill:#139ad6" />
  <path
     d="m 333.18927,134.67834 c -1.60403,0 -3.20807,-1.44258 -4.8099,-1.44258 -1.60514,0 -3.21028,0 -4.81212,-1.44257 -6.41504,-1.44476 -12.83009,-1.44476 -20.85028,-1.44476 l -62.54533,0 c -1.60404,0 -3.20698,0 -4.80991,1.44257 -3.21028,1.44258 -4.81211,4.32991 -4.81211,7.21616 l -12.8301,75.0358 0,2.88515 c 1.60294,-4.32773 6.41505,-8.65545 11.22606,-8.65545 l 24.06056,0 c 46.51048,0 81.79048,-17.32184 93.02095,-64.9487 0,-1.44258 0,-2.88515 1.61066,-4.32773 -3.21028,-1.44257 -4.80991,-2.89608 -8.02019,-2.89608 -4.80991,-1.44258 -4.80991,-1.44258 -6.40953,-1.44258"
     id="path18"
     inkscape:connector-curvature="0"
     style="fill:#232c65" />
</svg>
