<svg xmlns="http://www.w3.org/2000/svg" viewBox="0 0 573.18665 573.18665" height="573.187" width="573.187"><defs><clipPath id="a"><path d="M0 227.214h429.89V0H0z"/></clipPath><clipPath id="b"><path d="M90.104 149.552c-9.944 0-14.378-4.434-14.378-14.377V71.31c0-3.842 1.233-5.075 5.074-5.075h1.257c3.842 0 5.075 1.233 5.075 5.074v24.84h21.578c19.158 0 28.08 8.48 28.08 26.69s-8.922 26.7-28.08 26.7zm-2.972-15.887c0 3.725 1.385 5.11 5.11 5.11h16.468c10.56 0 16.675-2.605 16.675-15.92 0-10.408-2.657-16.048-16.675-16.048H87.132zM321.8 149.537c-7.78 0-10.672-1.284-10.672-8.368v-16.58c0-.04-.005-.07-.005-.11v-3.64c-.002-.13-.01-.25-.01-.38V97.31c0-2.83-.545-5.083-1.67-6.833-2.12-3.268-6.32-4.754-13.038-4.763-6.715.01-10.913 1.493-13.035 4.758-1.126 1.75-1.673 4.004-1.673 6.837v23.16c0 .13-.008.24-.01.37v3.63c0 .03-.004.07-.005.1v16.58c0 7.08-2.892 8.36-10.67 8.36h-2.45c-7.778 0-10.67-1.286-10.67-8.37V97.31c0-7.054 1.59-13.03 4.665-17.842 5.937-9.33 17.438-14.3 33.788-14.3h.12c16.35 0 27.85 4.97 33.788 14.3 3.075 4.81 4.666 10.783 4.666 17.84v43.856c0 7.082-2.9 8.366-10.68 8.366zm-174.793-19.574c-3.103-.675-4.4-1.527-4.4-5.056V123.9c0-1.382.204-2.34.643-3.014.51-.785 1.335-1.183 2.448-1.183.544 0 1.174.09 1.925.28 1.772.442 7.438 1.358 13.634 1.358 11.13 0 15.67-3.08 15.67-10.64v-6.74h-14.035c-18.042 0-26.446-6.08-26.446-19.15 0-12.67 8.678-19.65 24.434-19.65 18.726 0 27.076 6.38 27.076 20.67v24.89c0 13.82-8.897 20.54-27.2 20.54-7.375 0-11.996-.924-13.75-1.274m.47-45.16c0 7.295 4.357 10.137 15.542 10.137h13.91V86.2c0-7.138-2.647-11.27-16.173-11.27-8.937 0-13.28 3.234-13.28 9.886m97.258 44.596c-3.754 0-5.227-1.16-6.058-4.76L228.24 81.27c-1.3-5.33-3.13-6.305-6.26-6.305-3.832 0-5.37.918-6.9 6.328l-11.813 43.37c-.977 3.634-2.42 4.74-6.177 4.74h-1.008c-1.516 0-3.025-.138-3.8-1.15-.776-1.012-.513-2.523-.114-4.008l11.942-43.747c2.24-8.372 4.904-15.302 14.854-15.302 1.86 0 3.577.26 5.006.74-3.018-9.49-6.088-13.676-15.142-14.605-1.837-.15-3.03-.41-3.696-1.3-.69-.92-.533-2.25-.286-3.43l.25-1.12c.54-2.59 1.46-4.2 4.373-4.2.3 0 .63.02.98.05 13.52.89 20.76 8.16 25 25.12l14.46 57.85c.34 1.48.55 2.993-.25 3.99-.8 1-2.3 1.136-3.81 1.136z"/></clipPath><clipPath id="c"><path d="M0 227.214h429.89V0H0z"/></clipPath><clipPath id="d"><path d="M323.048 155.34h24.035v-24.247h-24.035z"/></clipPath></defs><g clip-path="url(#a)" transform="matrix(2 0 0 -2 -143.4 498.4)"><path d="M362.408 155.325l-12.794.004c-1.395 0-2.526 1.13-2.526 2.52l.005 12.95c0 1.39 1.132 2.52 2.527 2.52l12.794-.01c1.396 0 2.526-1.137 2.526-2.53l-.004-12.957c0-1.396-1.133-2.526-2.528-2.526m-17.048 18.01h-8.69c-.947 0-1.715.77-1.715 1.717l.003 8.797c0 .95.77 1.717 1.717 1.717h8.69c.947 0 1.715-.77 1.715-1.715l-.003-8.8c0-.95-.77-1.716-1.717-1.716" fill="#bccf00"/></g><g clip-path="url(#b)" transform="matrix(2 0 0 -2 -143.4 498.4)"><path d="M90.104 149.552c-9.944 0-14.378-4.434-14.378-14.377V71.31c0-3.842 1.233-5.075 5.074-5.075h1.257c3.842 0 5.075 1.233 5.075 5.074v24.84h21.578c19.158 0 28.08 8.48 28.08 26.69s-8.922 26.7-28.08 26.7zm-2.972-15.887c0 3.725 1.385 5.11 5.11 5.11h16.468c10.56 0 16.675-2.605 16.675-15.92 0-10.408-2.657-16.048-16.675-16.048H87.132zM321.8 149.537c-7.78 0-10.672-1.284-10.672-8.368v-16.58c0-.04-.005-.07-.005-.11v-3.64c-.002-.13-.01-.25-.01-.38V97.31c0-2.83-.545-5.083-1.67-6.833-2.12-3.268-6.32-4.754-13.038-4.763-6.715.01-10.913 1.493-13.035 4.758-1.126 1.75-1.673 4.004-1.673 6.837v23.16c0 .13-.008.24-.01.37v3.63c0 .03-.004.07-.005.1v16.58c0 7.08-2.892 8.36-10.67 8.36h-2.45c-7.778 0-10.67-1.286-10.67-8.37V97.31c0-7.054 1.59-13.03 4.665-17.842 5.937-9.33 17.438-14.3 33.788-14.3h.12c16.35 0 27.85 4.97 33.788 14.3 3.075 4.81 4.666 10.783 4.666 17.84v43.856c0 7.082-2.9 8.366-10.68 8.366zm-174.793-19.574c-3.103-.675-4.4-1.527-4.4-5.056V123.9c0-1.382.204-2.34.643-3.014.51-.785 1.335-1.183 2.448-1.183.544 0 1.174.09 1.925.28 1.772.442 7.438 1.358 13.634 1.358 11.13 0 15.67-3.08 15.67-10.64v-6.74h-14.035c-18.042 0-26.446-6.08-26.446-19.15 0-12.67 8.678-19.65 24.434-19.65 18.726 0 27.076 6.38 27.076 20.67v24.89c0 13.82-8.897 20.54-27.2 20.54-7.375 0-11.996-.924-13.75-1.274m.47-45.16c0 7.295 4.357 10.137 15.542 10.137h13.91V86.2c0-7.138-2.647-11.27-16.173-11.27-8.937 0-13.28 3.234-13.28 9.886m97.258 44.596c-3.754 0-5.227-1.16-6.058-4.76L228.24 81.27c-1.3-5.33-3.13-6.305-6.26-6.305-3.832 0-5.37.918-6.9 6.328l-11.813 43.37c-.977 3.634-2.42 4.74-6.177 4.74h-1.008c-1.516 0-3.025-.138-3.8-1.15-.776-1.012-.513-2.523-.114-4.008l11.942-43.747c2.24-8.372 4.904-15.302 14.854-15.302 1.86 0 3.577.26 5.006.74-3.018-9.49-6.088-13.676-15.142-14.605-1.837-.15-3.03-.41-3.696-1.3-.69-.92-.533-2.25-.286-3.43l.25-1.12c.54-2.59 1.46-4.2 4.373-4.2.3 0 .63.02.98.05 13.52.89 20.76 8.16 25 25.12l14.46 57.85c.34 1.48.55 2.993-.25 3.99-.8 1-2.3 1.136-3.81 1.136z" fill="#83b113"/></g><g clip-path="url(#c)" transform="matrix(2 0 0 -2 -143.4 498.4)"><g clip-path="url(#d)"><path d="M343.674 131.093l-17.225.006c-1.88 0-3.41 1.52-3.41 3.4v17.44c0 1.88 1.52 3.4 3.4 3.4l17.22-.01c1.88 0 3.4-1.53 3.4-3.41l-.008-17.44c0-1.88-1.525-3.41-3.404-3.4" fill="#bccf00"/></g></g></svg>