<svg xmlns="http://www.w3.org/2000/svg" width="4in" height="4in" viewBox="0 0 3094 3094" id="svg2" shape-rendering="geometricPrecision" text-rendering="geometricPrecision" image-rendering="optimizeQuality" fill-rule="evenodd" clip-rule="evenodd"><defs id="defs4"><style id="style6"><![CDATA[
    .str0 {stroke:#B5B3AD;stroke-width:13.8898}
    .fil5 {fill:none;fill-rule:nonzero}
    .fil3 {fill:#2B54A3;fill-rule:nonzero}
    .fil1 {fill:#F17F35;fill-rule:nonzero}
    .fil4 {fill:#F26B35;fill-rule:nonzero}
    .fil0 {fill:#191497;fill-rule:nonzero}
    .fil2 {fill:#DB5505;fill-rule:nonzero}
   ]]></style></defs><path class="fil3" id="polygon132" fill="#2b54a3" d="M2765.065 2534.835v-85.187h65.95v232.203h-65.95v-104.42h-74.196v104.43h-67.33v-232.21h67.32v85.19z"/><path class="fil3" d="M2395.462 2614.526c0-31.602 16.488-54.96 48.09-67.325 13.74-5.49 27.48-9.61 38.47-10.99 10.994-1.37 26.107-4.12 43.97-6.87v-8.24c1.372-34.35-17.863-39.84-41.22-39.84-21.984 0-43.968 6.87-64.578 17.86l-4.122-42.59c27.48-9.62 54.96-15.11 83.813-15.11 17.862 0 32.976 1.38 46.716 5.5 26.11 8.25 39.85 27.48 42.6 50.84 1.38 5.5 1.38 13.74 1.38 23.36v145.64c-59.08 21.99-195.1 37.1-195.1-54.96zm131.903 30.228v-82.44c-28.853 4.122-70.073 8.244-70.073 49.464 0 49.463 53.585 39.845 70.073 32.976z" id="path134" fill="#2b54a3"/><path class="fil3" d="M2376.227 2512.85c-4.122-17.86-15.114-34.35-28.854-48.09-23.358-21.982-104.423-39.844-142.895 17.863 0-61.83 26.106-92.057 78.318-100.3 52.21-8.245 81.065-13.74 81.065-13.74l-5.49-49.464s-53.58 8.24-97.55 17.86c-46.71 10.99-93.43 45.34-104.42 115.41-6.87 45.34-6.87 123.66 6.87 160.75 15.12 42.59 46.72 74.19 104.43 74.19 79.69 0 115.42-48.09 115.42-123.66 0-15.12-2.75-31.6-6.87-49.46zm-81.065 123.66c-6.87 8.244-15.114 13.74-27.48 13.74-38.472 0-48.09-63.204-48.09-92.058 0-23.357 5.496-48.09 17.862-64.577 6.87-8.244 16.488-12.366 27.48-12.366 15.114 0 28.853 9.61 35.723 28.85 8.244 19.23 9.62 39.84 9.62 59.08 0 24.73-4.124 50.84-17.863 68.7z" id="path136" fill="#2b54a3"/><path class="fil3" id="polygon138" fill="#2b54a3" d="M3076.96 2449.648l-76.944 103.05 83.813 129.153h-74.2l-72.82-116.78v116.79h-67.33v-232.21h67.32v105.8l74.19-105.8z"/><path class="fil3" d="M1808.77 2685.973c-20.61 0-43.967-1.374-63.203-9.618l5.496-41.22c16.488 9.62 30.228 13.74 49.464 13.74 32.975 0 52.21-15.113 50.837-37.097 0-10.992-2.748-19.236-9.618-24.732-6.87-5.496-13.74-8.244-23.357-9.618-8.25-1.374-16.49-1.374-23.36-1.374h-16.49v-35.723h4.12c24.73 0 63.2-1.37 63.2-32.97 1.37-24.73-24.73-30.23-38.47-30.23-20.61 0-38.48 5.5-56.34 15.12l-4.12-38.47c23.36-9.62 49.46-12.36 74.19-12.36 53.58-1.37 87.93 23.36 86.56 59.08 1.37 30.23-24.73 48.09-42.6 53.59 12.364 1.38 21.982 5.5 30.226 10.99 16.49 11 21.985 28.86 21.985 43.97 0 30.23-16.49 50.84-39.846 61.83-23.36 10.99-49.465 13.74-68.7 13.74z" id="path140" fill="#2b54a3"/><path class="fil3" d="M1208.34 2685.973c-76.944 0-119.538-46.715-119.538-122.285s45.342-120.91 120.91-120.91c20.61 0 35.725 2.748 54.96 9.618l-8.244 42.593c-12.365-5.5-23.357-9.62-37.097-9.62-45.34 0-64.57 37.1-64.57 78.31 0 41.22 19.24 82.44 64.58 82.44 13.74 0 24.74-2.75 37.1-9.62l4.12 42.59c-19.23 5.49-34.35 8.24-54.96 8.24z" id="path142" fill="#2b54a3"/><path class="fil3" d="M2012.12 2644.754s60.456 12.365 60.456-45.342c0-10.992-1.373-17.862-5.496-23.358-6.87-10.992-21.984-13.74-38.472-13.74h-16.488v82.44zm-65.95 37.097v-232.2h65.95v72.82c13.74 0 23.358-1.37 27.48-1.37 30.228 0 53.586 5.5 67.326 16.49 16.487 12.37 27.48 34.35 27.48 59.08-1.374 76.95-79.692 90.69-120.91 90.69-43.97 0-67.327-5.49-67.327-5.49z" id="path144" fill="#2b54a3"/><path class="fil3" d="M1447.412 2558.193c27.48-8.245 41.22-26.106 41.22-53.586 0-10.992-2.748-20.61-8.244-28.854-5.496-9.618-13.74-16.488-24.732-20.61-21.983-9.617-50.837-12.365-76.943-12.365-49.463 0-81.065 5.496-81.065 5.496v232.203s32.976 5.496 81.065 5.496c46.716 0 118.163-12.366 119.537-71.447v-2.748c1.374-26.106-15.114-50.838-52.212-54.96zm-65.95 23.357c5.495 0 12.365 0 20.61 1.374 8.243 0 15.113 2.748 20.61 8.244 5.495 4.122 9.617 12.366 9.617 23.358 0 24.732-21.99 34.35-52.22 34.35-8.25 0-16.49-1.375-16.49-1.375v-65.95h16.48zm-16.49-35.724v-63.203h23.36c31.6 0 38.47 19.236 38.47 30.228 0 23.36-13.74 34.35-46.715 34.35h-15.114z" id="path146" fill="#2b54a3"/><path class="fil3" d="M1630.153 2442.778c-49.464 0-109.92 8.244-109.92 71.447 0 32.975 16.49 53.585 48.09 61.83l-61.83 104.422h68.7l49.464-93.43h19.236v93.43h65.95v-232.203s-31.6-5.496-81.064-5.496zm15.113 105.797h-16.487c-31.61 0-45.35-10.992-45.35-37.098 0-27.48 20.61-32.976 37.1-32.976s24.73 1.38 24.73 1.38v68.7z" id="path148" fill="#2b54a3"/><path class="fil3" id="polygon150" fill="#2b54a3" d="M14.346 2681.85v-321.51h244.57v321.51h-71.448v-276.17H85.793v276.17z"/><path class="fil3" d="M298.76 2775.282v-320.138c57.708-12.366 217.09-45.342 217.09 96.18 0 37.096-9.618 70.072-28.853 92.056-37.098 45.34-98.927 39.845-119.537 31.6v98.928h-67.325zm151.14-218.464c0-87.935-61.83-79.69-83.814-74.195v152.513c8.244 1.374 83.813 30.227 83.813-76.943z" id="path152" fill="#2b54a3"/><path class="fil3" d="M649.127 2685.973c-76.943 0-109.92-49.463-109.92-120.91 0-75.57 39.847-122.285 116.79-122.285 27.48 0 49.463 6.87 65.95 19.235 16.49 12.366 27.48 27.48 32.977 46.716 5.496 19.23 8.244 37.09 8.244 54.95 0 78.32-32.976 123.66-115.415 123.66zm5.496-37.098c19.236 0 32.976-15.113 38.472-35.723 5.495-20.61 5.495-35.724 5.495-52.212 0-21.983-2.748-38.47-8.243-56.333-6.87-17.862-20.61-26.106-34.35-26.106-19.236 0-32.976 13.74-38.472 32.98-6.87 19.24-6.87 37.1-6.87 49.47 0 28.86 6.87 87.94 46.716 87.94z" id="path154" fill="#2b54a3"/><path class="fil3" id="polygon156" fill="#2b54a3" d="M926.672 2607.656l48.09-158.008h76.943l21.984 232.203h-61.83l-12.37-167.62-50.84 167.63h-53.58l-50.84-169-12.37 169H776.9l24.733-232.2h76.94z"/><path class="fil3" d="M2441.266 847.95c0-243.542-197.27-440.81-440.81-440.81h-623.47c-202.14 0-372.62 136.383-423.763 323.91h752.546c289.81 0 414.02 133.95 414.02 450.554v716.014c187.52-51.144 323.91-224.06 323.91-423.764V850.386z" id="path158" fill="#2b54a3"/><path class="fil4" d="M629.312 1778.283c0 243.542 197.27 440.81 440.81 440.81h623.47c202.14 0 372.62-136.383 423.763-323.91H1364.81c-289.816 0-414.022-133.948-414.022-450.554V728.61c-187.528 51.15-323.912 224.062-323.912 423.77v623.467z" id="path160" fill="#f26b35"/><path class="fil3" d="M1890.86 1103.67v-2.435c34.097-12.177 82.805-41.402 82.805-116.9 0-85.24-70.627-126.642-168.044-126.642h-168.04v207.01h-97.41c-131.51 0-158.3 92.547-158.3 143.69 0 70.628 41.41 104.724 116.9 141.255 46.28 24.354 102.29 36.532 102.29 90.11 0 26.79-26.79 60.886-80.37 60.886h-104.73c14.62-26.79 21.92-56.014 21.92-80.37 0-34.094-12.18-165.607-194.83-165.607h-151v509.003h102.29v-221.623l41.41 41.402h280.075c131.51 0 192.398-68.2 192.398-148.57 0-29.23-4.87-51.15-14.61-70.63h104.727c160.74 0 199.71-80.37 199.71-143.69 0-63.32-41.4-112.03-107.16-121.77zm-650.257 399.41h-48.708v-165.61h48.708c58.45 0 87.675 36.532 87.675 80.37 0 41.402-24.354 85.24-87.675 85.24zm396.974-316.605v124.206c-24.355-14.61-53.58-26.78-82.805-38.96-31.66-14.61-68.19-31.66-68.19-73.06 0-21.92 12.176-51.14 75.497-51.14h114.46l-41.4 41.4zm102.288-248.414h46.272c77.934 0 82.805 48.71 82.805 63.33 0 21.92-12.177 63.32-77.934 63.32h-51.143V938.06zm58.45 348.27h-58.45v-141.25h58.45c70.627 0 90.11 34.1 90.11 70.63 0 36.53-26.79 70.63-90.11 70.63z" id="path162" fill="#2b54a3"/></svg>