<?xml version="1.0" encoding="UTF-8" standalone="no"?>
<svg
   xmlns:dc="http://purl.org/dc/elements/1.1/"
   xmlns:cc="http://creativecommons.org/ns#"
   xmlns:rdf="http://www.w3.org/1999/02/22-rdf-syntax-ns#"
   xmlns:svg="http://www.w3.org/2000/svg"
   xmlns="http://www.w3.org/2000/svg"
   xmlns:sodipodi="http://sodipodi.sourceforge.net/DTD/sodipodi-0.dtd"
   xmlns:inkscape="http://www.inkscape.org/namespaces/inkscape"
   viewBox="0 0 530 530"
   height="530"
   width="530"
   id="svg2"
   version="1.1"
   inkscape:version="0.91 r13725"
   sodipodi:docname="qiwi.svg">
  <metadata
     id="metadata19">
    <rdf:RDF>
      <cc:Work
         rdf:about="">
        <dc:format>image/svg+xml</dc:format>
        <dc:type
           rdf:resource="http://purl.org/dc/dcmitype/StillImage" />
      </cc:Work>
    </rdf:RDF>
  </metadata>
  <sodipodi:namedview
     pagecolor="#ffffff"
     bordercolor="#666666"
     borderopacity="1"
     objecttolerance="10"
     gridtolerance="10"
     guidetolerance="10"
     inkscape:pageopacity="0"
     inkscape:pageshadow="2"
     inkscape:window-width="1366"
     inkscape:window-height="705"
     id="namedview17"
     showgrid="false"
     inkscape:zoom="0.89056604"
     inkscape:cx="237.11722"
     inkscape:cy="278.91421"
     inkscape:window-x="-8"
     inkscape:window-y="-8"
     inkscape:window-maximized="1"
     inkscape:current-layer="svg2" />
  <defs
     id="defs4">
    <clipPath
       id="a">
      <path
         d="M0 419.53h595.28V0H0v419.53z"
         id="path7" />
    </clipPath>
  </defs>
  <g
     clip-path="url(#a)"
     transform="matrix(2.4950338,0,0,-2.2861675,-482.47554,760.38112)"
     id="g9"
     style="fill-rule:evenodd">
    <path
       d="m 335.952,221.98 c -0.98,4.543 -3.082,7.96 -6.024,10.542 -1.016,1.07 -2.245,1.83 -3.64,2.634 -0.7,0.406 -1.213,0.655 -2.13,1.002 -1.527,0.58 -3.532,1.256 -6.024,1.004 1.25,0.632 3.108,0.658 5.02,0.63 1.587,-0.17 2.902,-0.61 4.263,-1.004 1.14,-0.62 2.267,-1.248 3.39,-1.883 2.75,8.222 1.696,19.473 -1.38,26.724 -2.975,7.6 -7.297,13.86 -12.92,18.82 -5.532,5.05 -12.175,8.99 -20.955,10.79 -4.346,0.94 -9.814,0.78 -13.804,-0.13 -4.17,-1.1 -7.635,-2.9 -10.664,-5.15 -2.815,-2.5 -5.547,-5.08 -7.403,-8.53 -0.66,-0.67 -0.95,-1.73 -1.5,-2.51 -0.38,-0.96 -0.81,-1.86 -1.25,-2.76 -0.65,-1.99 -1.39,-3.88 -1.76,-6.15 -1,-4.11 -1.18,-9.75 -0.5,-14.18 0.52,-4.76 1.91,-8.63 3.39,-12.42 0.91,-1.77 1.75,-3.61 2.76,-5.27 0.96,-1.68 2.16,-3.12 3.27,-4.64 2.53,-2.75 5.25,-5.3 8.41,-7.41 6.41,-4.18 13.77,-7.4 23.84,-7.91 0.2,0.41 -0.27,1.23 -0.38,1.75 -0.15,0.6 -0.21,1.29 -0.38,1.88 -0.14,1.35 -0.18,2.92 0,4.26 0.4,-0.11 0.39,-0.62 0.63,-0.88 0.22,-0.25 0.3,-0.63 0.63,-0.75 0.25,-0.71 0.8,-1.13 1.13,-1.76 0.95,-0.98 1.69,-2.17 2.89,-2.89 0.96,-0.97 2.24,-1.61 3.39,-2.39 1.25,-0.64 2.31,-1.46 3.77,-1.88 2.5,-1.32 5.84,-1.78 9.16,-2.26 3.35,-0.46 6.59,-1.03 9.66,-1.76 2.84,-0.97 5.72,-1.89 8.03,-3.39 1.22,-0.71 2.43,-1.43 3.51,-2.26 0.54,-0.43 1.21,-0.72 1.64,-1.25 0.66,-0.27 0.95,-0.89 1.63,-1.13 1.95,-1.86 3.88,-3.74 5.53,-5.9 0.68,-1.25 1.61,-2.24 2.13,-3.64 0.46,-0.51 0.59,-1.33 1,-1.88 0.03,-0.72 0.72,-1.57 0.13,-2.14 -0.93,-0.14 -0.74,0.84 -1.13,1.25 -0.3,0.49 -0.68,0.91 -0.88,1.5 -1.47,1.54 -2.78,3.24 -4.39,4.64 -1.59,1.38 -3.15,2.79 -5.02,3.89 -3.5,2.48 -7.56,4.39 -12.29,5.65 -4.66,1.35 -9.88,1.89 -15.93,1.5 -2.66,-0.35 -5.2,-0.83 -7.4,-1.63 -2.37,-0.59 -5.02,-0.92 -7.65,-1.26 -10.27,-0.64 -21.7,1.81 -29.36,5.51 -4.08,1.89 -7.84,4.11 -11.04,6.9 -1.74,1.26 -3.17,2.85 -4.64,4.39 -1.34,1.62 -2.75,3.18 -3.76,5.14 -1.34,1.67 -2.13,3.89 -3.26,5.77 -0.73,2.23 -1.77,4.16 -2.26,6.65 -0.76,2.24 -1.23,4.78 -1.5,7.53 -0.04,0.75 -0.38,2.2 -0.38,3.38 0,0.1 0.14,0.2 0.13,0.37 -0.05,1.07 -0.31,2.72 0,3.64 -0.05,2.48 0.39,5.54 0.88,7.9 0.45,2.52 1.12,4.82 1.88,7.03 0.75,2.26 1.73,4.29 2.63,6.4 0.61,0.9 1.06,1.95 1.63,2.88 0.48,0.985 1.2,1.73 1.64,2.76 0.49,0.27 0.57,0.937 1,1.255 0.2,0.554 0.72,0.79 0.88,1.38 0.41,0.34 0.74,0.77 1.01,1.25 0.38,0.37 0.78,0.724 1,1.254 1.49,1.47 2.83,3.1 4.39,4.51 1.55,1.46 3.29,2.73 4.89,4.14 1.02,0.485 1.75,1.256 2.76,1.756 0.77,0.7 1.88,1.057 2.64,1.76 2.1,0.92 3.88,2.15 6.15,2.888 1.96,1.01 4.31,1.63 6.53,2.38 4.82,1.23 9.68,2.08 15.68,1.88 0.22,-0.03 0.33,0.21 0.38,0 11.37,-0.346 19.66,-3.77 26.73,-8.41 7,-4.66 12.43,-10.91 16.31,-18.695 3.8,-7.71 5.94,-18.19 4.14,-29.23 -0.9,-4.958 -2.35,-9.36 -4.14,-13.42 -1.02,-1.908 -1.94,-3.92 -3.13,-5.65 -0.52,-0.937 -1.083,-1.84 -1.753,-2.636 -0.23,-0.49 -0.545,-0.88 -0.88,-1.26 -0.15,-0.23 -0.33,-0.42 -0.5,-0.628 -0.06,-0.11 -0.11,-0.23 -0.26,-0.25 0.04,-0.23 -0.11,-0.26 -0.12,-0.13"
       id="path11"
       inkscape:connector-curvature="0"
       style="fill:#f68114" />
    <path
       d="m 332.94,218.72 c -1.39288,0.96382 -3.10188,3.83051 -2.385,5.52 0.1,0.024 0.124,0.126 0.25,0.126 1.67201,0.36301 2.44296,-2.22619 2.754,-3.388 0.02,-0.988 0.1,-2.025 -0.63,-2.26 m -11.04,2.134 c 2.30005,-0.59679 3.35867,-2.24265 3.5,-4.14 -0.2,-1.31 -0.94,-2.08 -2.14,-2.384 -3,-0.05 -4.7,2.707 -3.64,5.52 0.59,0.49 1.02,1.152 2.26,1.004"
       id="path13"
       inkscape:connector-curvature="0"
       style="fill:#f68114"
       sodipodi:nodetypes="cccccccccc" />
    <path
       d="m 255.652,168.91 c -1.096,-0.077 -1.75,-0.593 -2.635,-0.88 -0.586,-0.54 -1.314,-0.944 -1.758,-1.63 -0.73,-0.406 -0.93,-1.336 -1.51,-1.88 -0.49,-1.22 -0.96,-2.573 -1.26,-4.142 -0.3,-1.548 -0.49,-3.304 -0.5,-5.02 -0.04,-4.32 0.89,-8.613 2.63,-11.168 1.01,-1.243 2.24,-2.267 3.76,-3.008 0.87,-0.087 1.56,-0.36 2.5,-0.378 0.52,0.19 1.42,0.01 1.76,0.378 0.77,-0.058 0.96,0.462 1.63,0.5 0.35,0.36 0.75,0.665 1.25,0.88 0.45,0.51 0.89,1.03 1.37,1.504 0.25,0.373 0.39,0.867 0.75,1.13 2.18,4.175 2.43,11.834 1,16.69 -0.53,1.778 -1.3,3.21 -2.13,4.39 -0.93,0.958 -2.02,1.75 -3.26,2.385 -1.01,0.21 -1.95,0.48 -3.26,0.38 -0.08,0 -0.15,-0.02 -0.13,-0.12 l -0.25,0 z m 6.02,-31.617 c 0.36,-1.528 1.138,-2.632 2.008,-3.642 0.868,-1.01 1.895,-1.86 3.14,-2.51 1.156,-0.72 2.42,-1.33 3.885,-1.75 0.71,-0.25 1.395,-0.53 2.26,-0.62 0.597,-0.32 1.343,-0.5 1.38,-1.38 -0.03,-1.05 -0.738,-1.43 -1.63,-1.63 -0.9,0.19 -2.013,0.16 -2.762,0.5 -1.903,0.23 -3.428,0.84 -5.017,1.38 -3.064,1.21 -5.625,2.91 -7.78,5.02 -0.44,0.74 -1.036,1.31 -1.504,2.01 -0.465,0.71 -0.78,1.57 -1.255,2.26 -3.73,0.5 -6.28,2.18 -8.532,4.14 -2.072,2.36 -3.703,5.17 -4.393,8.91 -0.794,3.6 -0.548,8.08 0.376,11.55 2.054,6.73 6.385,11.19 14.556,11.8 2.253,-0.07 4.218,-0.34 6.02,-1 1.813,-0.66 3.54,-1.86 4.897,-3.13 0.11,-0.1 0.17,-0.11 0.25,-0.25 0.29,-0.43 0.99,-0.99 1.38,-1.5 0.08,-0.1 0.05,-0.26 0.13,-0.38 0.16,-0.2 0.38,-0.3 0.51,-0.5 0.09,-0.12 0.06,-0.25 0.13,-0.37 0.1,-0.15 0.23,-0.37 0.38,-0.62 0.06,-0.1 0.22,-0.18 0.25,-0.25 0.22,-0.41 0.31,-0.91 0.51,-1.38 0.2,-0.47 0.47,-0.9 0.63,-1.38 0.48,-1.44 0.8,-3.12 1.01,-4.89 0.49,-5.05 -0.51,-9.56 -2.38,-12.92 -0.88,-1.75 -2.09,-3.18 -3.51,-4.39 -1.32,-1.31 -3.13,-2.14 -4.89,-3.01 m 20.45,35.13 c 1.97,-0.08 4.26,0.16 6.02,-0.13 0.4,-0.62 0.24,-1.33 0.26,-2.01 0.14,-9.2 0,-19.07 0,-28.48 0,-0.75 0.02,-1.52 0,-2.26 -0.02,-0.62 0.14,-1.3 -0.25,-1.88 -0.88,-0.22 -2.13,-0.13 -3.26,-0.13 -1.18,0 -2.36,-0.16 -3.14,0.26 -0.21,11.12 -0.21,23.13 0,34.25 0.07,0.18 0.2,0.31 0.38,0.38 m 15.05,0 5.9,0 6.02,-23.33 7.53,23.36 2.51,0 c 0.9,-1.69 1.23,-3.96 2.01,-5.77 0.5,-2.05 1.22,-3.88 1.75,-5.9 1.25,-3.91 2.52,-7.773 3.64,-11.8 0.5,0.75 0.51,2.01 0.88,2.89 0.22,1 0.41,2.02 0.75,2.88 0.97,3.97 1.88,7.99 3.01,11.79 0.43,2 0.84,4.02 1.51,5.78 1.46,0.208 3.7,0.208 5.15,0 l -8.27,-30.613 c -0.49,-1.353 -0.65,-3.03 -1.38,-4.14 l -3.51,0 c -0.89,1.57 -1.21,3.72 -2,5.39 -1.75,5.53 -3.7,10.857 -5.39,16.437 l -7.15,-21.7 c -0.93,-0.27 -2.37,-0.04 -3.51,-0.12 l -9.79,34.627 c 0.09,0.12 0.23,0.19 0.37,0.25 m 49.57,0 c 1.97,-0.08 4.26,0.17 6.02,-0.12 0.43,-1.32 0.25,-2.72 0.25,-4.14 l 0,-26.362 c 0,-1.43 0.18,-2.82 -0.25,-4.144 -1.35,-0.15 -3.35,-0.2 -5.02,-0.12 -0.47,0.02 -1.06,-0.12 -1.38,0.25 -0.43,1.305 -0.25,2.71 -0.25,4.14 l 0,26.09 c 0,1.58 -0.14,3.1 0.25,4.14 0.1,0.12 0.23,0.19 0.38,0.25 M 312.15,119 c 0.64,2.575 -1.66,3.815 -4.143,3.262 -0.297,-1.25 -0.04,-3.05 -0.13,-4.515 1.85,-0.146 3.546,-0.03 4.27,1.25 m -0.63,5.9 c 0.32,2.4 -1.63,2.81 -3.64,2.51 l 0,-4.016 c 1.865,-0.15 3.1,0.34 3.64,1.51 m 0,-1.75 c 0.775,-0.4 1.59,-0.75 2.137,-1.38 0.45,-0.71 0.67,-2.05 0.37,-3.14 -1.115,-2.31 -4.99,-2.5 -7.906,-1.75 l 0,11.42 c 0.86,0.44 2.22,0.37 3.51,0.38 0.846,-0.11 1.675,-0.24 2.386,-0.5 0.93,-0.58 1.72,-1.8 1.25,-3.39 -0.45,-0.68 -0.86,-1.4 -1.76,-1.63 m -28.23,5.39 c 0.27,-1.35 0.05,-3.2 0.12,-4.77 0.07,-0.23 0.52,0.22 0.5,0.51 0.212,0.16 0.49,0.26 0.5,0.63 0.423,0.33 0.77,0.74 1.003,1.26 0.843,0.66 1.263,1.75 2.13,2.39 0.463,-0.04 1.11,0.11 1.38,-0.12 -0.43,-1.07 -1.264,-1.74 -1.88,-2.63 -0.583,-0.88 -1.373,-1.55 -1.88,-2.51 0.65,-1.18 1.58,-2.09 2.256,-3.26 0.8,-1.04 1.71,-1.97 2.26,-3.26 -0.45,-0.26 -1.36,-0.06 -2.01,-0.12 -0.762,0.91 -1.39,1.96 -2.133,2.89 -0.62,1.05 -1.47,1.87 -2.004,3.01 -0.296,-1.67 -0.04,-3.89 -0.13,-5.77 -0.374,-0.25 -1.185,-0.07 -1.75,-0.12 -0.22,3.62 -0.206,8.69 0,11.92 l 1.624,0 z m 17.06,-3.39 c 0.18,0.08 -0.01,0.16 0,0 -2.18,-2.76 -4.11,-5.75 -6.28,-8.53 l -1.503,0 c -0.21,3.68 -0.21,8.24 0,11.92 l 1.38,0 0,-9.04 c 0.11,-0.33 0.31,0.27 0.38,0.38 0.17,0.21 0.35,0.4 0.5,0.63 0.26,0.45 0.62,0.81 0.88,1.26 0.59,0.83 1.26,1.58 1.76,2.51 0.74,0.68 1.12,1.72 1.88,2.38 0.18,0.54 0.53,0.9 0.88,1.25 0.04,0.73 0.86,0.66 1.63,0.63 -0.08,-3.93 0.17,-8.19 -0.12,-11.92 l -1.26,0 c -0.28,2.6 -0.04,5.73 -0.12,8.53 m 18.82,3.27 0,-8.28 c 0.12,-0.34 0.31,0.26 0.38,0.37 0.26,0.04 0.25,0.34 0.38,0.5 0.35,0.28 0.47,0.79 0.88,1 0.38,0.88 1.04,1.47 1.51,2.27 1.08,1.38 2.05,2.88 3.13,4.27 l 1.51,0 c 0.21,-3.68 0.21,-8.24 0,-11.92 l -1.25,0 c -0.29,2.76 -0.05,6.06 -0.13,9.03 -0.1,0.24 -0.07,-0.13 -0.25,-0.12 -0.05,-0.11 -0.11,-0.22 -0.25,-0.25 -0.01,-0.32 -0.23,-0.44 -0.37,-0.63 -0.28,-0.43 -0.56,-0.85 -0.88,-1.25 -0.56,-0.87 -1.24,-1.6 -1.75,-2.51 -0.6,-0.82 -1.29,-1.56 -1.76,-2.51 -0.87,-0.55 -0.76,-2.08 -2.51,-1.76 -0.21,3.68 -0.21,8.24 0,11.92 0.46,-0.05 1.11,0.1 1.38,-0.13"
       id="path15"
       inkscape:connector-curvature="0"
       style="fill:#3064b8"
       sodipodi:nodetypes="ccccccccccccccccccccccccccccccccccccccccccccscsscccccccsccscccccccccccccccccccccccccccsscccssccccccccccccccccccccccccccccccccccccccccccccccccccccccccccccccccccccccccccc" />
  </g>
</svg>
