<svg xmlns="http://www.w3.org/2000/svg" viewBox="0 0 151.62666 151.62666" height="151.627" width="151.627"><path d="M19.814 50.198c0-5.138-4.164-9.302-9.3-9.302-5.136 0-9.3 4.164-9.3 9.302v22.658c0 5.14 4.164 9.3 9.3 9.3 5.136 0 9.3-4.16 9.3-9.3V50.198" fill="#656263"/><path d="M42.903 73.29c0-5.14-4.16-9.307-9.3-9.307-5.135 0-9.297 4.168-9.297 9.306v23.09c0 5.13 4.162 9.29 9.297 9.29 5.14 0 9.3-4.16 9.3-9.3V73.29M66.21 50.198c0-5.138-4.164-9.302-9.3-9.302-5.137 0-9.3 4.164-9.3 9.302V96.38c0 5.136 4.163 9.297 9.3 9.297 5.136 0 9.3-4.16 9.3-9.297V50.198M19.814 96.38c0-5.138-4.164-9.304-9.3-9.304-5.136 0-9.3 4.166-9.3 9.304 0 5.136 4.164 9.297 9.3 9.297 5.136 0 9.3-4.16 9.3-9.297" fill="#61b932"/><path d="M42.903 50.198c0-5.138-4.16-9.302-9.3-9.302-5.135 0-9.297 4.164-9.297 9.302v.213c0 5.14 4.162 9.31 9.297 9.31 5.14 0 9.3-4.17 9.3-9.3v-.22m53.314 10.21h-3.31c-.35 0-.707-.13-.975-.4-.27-.26-.4-.62-.4-.97v-1.71c0-.35.13-.71.4-.97.268-.26.626-.4.976-.4h3.31c1.27 0 2.472.56 2.472 2.25 0 1.65-1.434 2.21-2.473 2.21zm8.982 8.86c-.2-2.21-.91-4.95-3.33-5.56-.03-.01-.06-.02-.06-.05 0-.03.03-.04.06-.06 2.4-.95 3.59-3.31 3.59-5.8 0-4.69-4.04-6.54-8.14-6.54h-9.86c-1.1 0-1.99.89-1.99 1.99v18.24c0 .77.29 1.54.88 2.13.58.59 1.36.88 2.13.88h.11c.75 0 1.5-.28 2.07-.85.57-.57.86-1.32.86-2.07V67.4c0-.35.13-.7.4-.97.27-.267.62-.403.97-.403h3.21c2.83 0 3.22 2.413 3.38 4.753l.04.404.04.373c.07.776.42 1.52 1.04 2.09.61.554 1.39.833 2.17.835.71 0 1.42-.29 1.94-.858.52-.577.74-1.315.68-2.027l-.19-1.96s-.024-.28-.03-.386m9.175-.98c0 .35.13.71.4.97s.624.41.976.41h3.47c1.92 0 3.26-.68 3.26-2.6 0-2.05-1.433-2.73-3.256-2.73h-3.47c-.35 0-.71.14-.976.4-.27.27-.4.62-.4.98zm0-9.24c0 .35.13.71.4.98s.624.41.976.41h3.31c1.04 0 2.47-.56 2.47-2.22 0-1.69-1.2-2.25-2.47-2.25h-3.31c-.35 0-.71.14-.974.4-.27.27-.4.63-.4.98zm-6.06-5.78c0-1.1.894-1.99 1.99-1.99h8.88c4.007-.06 8.4.98 8.4 5.83 0 1.37-.535 2.57-1.415 3.49-.3.32-1.47 1.12-1.47 1.12s1.28.71 1.59.94c1.42 1.04 2.24 2.71 2.24 4.65 0 5.53-4.063 7.23-9.043 7.23h-9.17c-1.095 0-1.99-.89-1.99-1.986V53.25m22.85 1.026c0-.77.296-1.542.884-2.13.59-.592 1.367-.886 2.137-.886.713 0 1.61.344 2.16.89.54.543.874 1.185.874 1.9l-.003 4.032c.16.7.75.8 1.21.34l5.6-6.186c.37-.43.52-.52 1.06-.77.55-.25 1.42-.24 1.93-.05.47.177 1.04.52 1.48 1.31.43.745.47 1.847-.254 2.826l-3.987 4.443s-.16.17-.16.446c0 .19.17.42.17.42l5.884 8.58c.51.74 1.244 2.03.51 3.33-.84 1.48-2.11 1.84-3.14 1.73-1.2-.13-1.75-.85-1.98-1.08l-5.62-8.33c-.34-.54-.98-.85-1.71-.64-.64.19-.987.8-.987 1.43v5.56c0 .79-.33 1.64-.93 2.24-.6.6-1.355.84-2.14.84h-.04c-.75 0-1.486-.32-2.06-.89-.57-.57-.877-1.29-.877-2.032v-17.3" fill="#656263"/><path d="M85.303 80.216c0-.826.666-1.497 1.492-1.497.9 0 1.704.56 2.02 1.4l3.975 10.59c.23.62 1.11.62 1.34 0l3.993-10.6c.32-.84 1.126-1.4 2.025-1.4.822 0 1.492.67 1.492 1.49v13.88c0 .57-.463 1.03-1.033 1.03-.575 0-1.03-.46-1.03-1.04V81.5c0-.013-.014-.023-.03-.023-.01 0-.026.005-.028.024l-4.8 12.76c-.2.53-.7.87-1.26.87s-1.06-.34-1.26-.87L87.42 81.5c-.005-.02-.02-.02-.032-.02s-.02.01-.02.028v12.59c0 .58-.466 1.04-1.037 1.04-.57 0-1.03-.46-1.03-1.034V80.22" fill="#61b932"/><path d="M85.303 80.216c0-.826.666-1.497 1.492-1.497.9 0 1.704.56 2.02 1.4l3.975 10.59c.23.62 1.11.62 1.34 0l3.993-10.6c.32-.84 1.126-1.4 2.025-1.4.822 0 1.492.67 1.492 1.49v13.88c0 .57-.463 1.03-1.033 1.03-.575 0-1.03-.46-1.03-1.04V81.5c0-.013-.014-.023-.03-.023-.01 0-.026.005-.028.024l-4.8 12.76c-.2.53-.7.87-1.26.87s-1.06-.34-1.26-.87L87.42 81.5c-.005-.02-.02-.02-.032-.02s-.02.01-.02.028v12.59c0 .58-.466 1.04-1.037 1.04-.57 0-1.03-.46-1.03-1.034z" fill="none" stroke="#61b932" stroke-width=".645"/><path d="M109.618 93.68c2.044 0 3.702-1.605 3.702-4.478 0-2.898-1.658-4.506-3.702-4.506-2.046 0-3.698 1.608-3.698 4.506 0 2.873 1.652 4.48 3.698 4.48zm0-10.706c3.77 0 5.77 2.733 5.77 6.228 0 3.465-2 6.207-5.77 6.207-3.77 0-5.766-2.75-5.766-6.21 0-3.5 1.996-6.23 5.766-6.23" fill="#61b932"/><path d="M109.618 93.68c2.044 0 3.702-1.605 3.702-4.478 0-2.898-1.658-4.506-3.702-4.506-2.046 0-3.698 1.608-3.698 4.506 0 2.873 1.652 4.48 3.698 4.48zm0-10.706c3.77 0 5.77 2.733 5.77 6.228 0 3.465-2 6.207-5.77 6.207-3.77 0-5.766-2.75-5.766-6.21 0-3.5 1.996-6.23 5.766-6.23z" fill="none" stroke="#61b932" stroke-width=".645"/><path d="M117.225 84.167c0-.508.413-.915.92-.915.512 0 .92.407.92.915v.946c0 .01.01.02.025.02.03 0 .044-.04.062-.067.83-1.427 2.147-2.092 3.823-2.092 3.123 0 4.087 1.79 4.087 4.344v6.838c0 .538-.435.972-.976.972-.538 0-.977-.434-.977-.972v-7.07c0-1.445-.92-2.39-2.42-2.39-2.37 0-3.52 1.582-3.52 3.723v5.73c0 .54-.43.97-.98.97-.54 0-.98-.44-.98-.97v-9.99" fill="#61b932"/><path d="M117.225 84.167c0-.508.413-.915.92-.915.512 0 .92.407.92.915v.946c0 .01.01.02.025.02.03 0 .044-.04.062-.067.83-1.427 2.147-2.092 3.823-2.092 3.123 0 4.087 1.79 4.087 4.344v6.838c0 .538-.435.972-.976.972-.538 0-.977-.434-.977-.972v-7.07c0-1.445-.92-2.39-2.42-2.39-2.37 0-3.52 1.582-3.52 3.723v5.73c0 .54-.43.97-.98.97-.54 0-.98-.44-.98-.97z" fill="none" stroke="#61b932" stroke-width=".645"/><path d="M135.885 88.054c1.013 0 1.893-.962 1.345-1.812-.6-.933-1.62-1.546-2.856-1.546-1.28 0-2.236.602-2.803 1.494-.55.865.3 1.864 1.32 1.864zm2.83 3.306c.492 0 .88.464.706.926-.75 2.03-2.48 3.123-4.82 3.123-3.79 0-5.58-2.63-5.69-6.26 0-3.57 2.35-6.19 5.58-6.19 3.36 0 4.86 2.49 5.27 4.96.17 1.02-.75 1.83-1.8 1.83h-5.06c-1.04 0-2 .85-1.61 1.82.5 1.21 1.61 2.08 3.39 2.08 1.26 0 2.23-.48 2.75-1.42.28-.5.74-.91 1.3-.91" fill="#61b932"/><path d="M135.885 88.054c1.013 0 1.893-.962 1.345-1.812-.6-.933-1.62-1.546-2.856-1.546-1.28 0-2.236.602-2.803 1.494-.55.865.3 1.864 1.32 1.864zm2.83 3.306c.492 0 .88.464.706.926-.75 2.03-2.48 3.123-4.82 3.123-3.79 0-5.58-2.63-5.69-6.26 0-3.57 2.35-6.19 5.58-6.19 3.36 0 4.86 2.49 5.27 4.96.17 1.02-.75 1.83-1.8 1.83h-5.06c-1.04 0-2 .85-1.61 1.82.5 1.21 1.61 2.08 3.39 2.08 1.26 0 2.23-.48 2.75-1.42.28-.5.74-.91 1.3-.91z" fill="none" stroke="#61b932" stroke-width=".645"/><path d="M146.095 96.717c-.896 2.32-1.7 3.172-3.445 3.172-.176 0-.347-.01-.52-.03-.52-.05-.838-.56-.838-1.08 0-.43.425-.72.856-.65.098.01.196.02.295.02.802 0 1.24-.39 1.604-1.08l.098-.25c.456-1.14.45-2.42 0-3.56l-3.594-9.02c-.19-.49.17-1.02.7-1.02.66 0 1.26.41 1.48 1.03l3.09 8.653c.01.014.02.022.04.022.01 0 .02-.01.03-.026l3-8.72c.2-.586.75-.973 1.37-.973.51 0 .85.49.67.96l-4.81 12.52" fill="#61b932"/><path d="M146.095 96.717c-.896 2.32-1.7 3.172-3.445 3.172-.176 0-.347-.01-.52-.03-.52-.05-.838-.56-.838-1.08 0-.43.425-.72.856-.65.098.01.196.02.295.02.802 0 1.24-.39 1.604-1.08l.098-.25c.456-1.14.45-2.42 0-3.56l-3.594-9.02c-.19-.49.17-1.02.7-1.02.66 0 1.26.41 1.48 1.03l3.09 8.653c.01.014.02.022.04.022.01 0 .02-.01.03-.026l3-8.72c.2-.586.75-.973 1.37-.973.51 0 .85.49.67.96z" fill="none" stroke="#61b932" stroke-width=".645"/></svg>