<svg xmlns="http://www.w3.org/2000/svg" width="210mm" height="210mm" viewBox="0 0 744.09448819 744.09448819"><path d="M24.827 403.196c-3.833.09-7.573 1.56-10.4 4.384l-4.168 4.162V549.9l3.69 4.383c3.26 3.878 4.55 4.38 11.24 4.38 5.31 0 8.55-.808 10.92-2.72 3.28-2.653 3.38-3.404 4.07-30.978l.71-28.258 11.63-.41 11.63-.413 8.32 6.657c20.6 16.49 31.84 30.35 31.84 39.26 0 6.5 3.11 13.3 7.05 15.4 4.02 2.15 14.66 1.79 18.09-.61 8.02-5.61 7.79-20.01-.577-36.75-3.88-7.76-8.606-13.8-19.137-24.44-7.695-7.77-13.986-14.18-13.984-14.24.004-.06 6.304-6.53 14-14.39 20.35-20.78 28.87-39.29 24.61-53.49-2.044-6.81-7.23-9.83-16.89-9.83-10.034 0-11.813 1.88-13.133 13.894-.93 8.455-1.976 11.335-6.178 17.014-5.52 7.463-14.69 16.515-26.2 25.87l-7.393 6.01-11.845-.42-11.85-.412-.39-27.32-.39-27.31-4.352-3.662c-3.194-2.68-7.12-3.97-10.95-3.88zm548.778.04l-46.126.447c-45 .435-46.29.527-52.88 3.77-15.25 7.5-23.15 22.57-22.92 43.677.22 19.98 8.32 34.35 23.15 41.093 5.72 2.603 10.17 3.052 36.76 3.722 29.07.733 30.38.888 33.49 4.006 2.68 2.69 3.24 4.79 3.24 12.18 0 6.15-.79 10.13-2.53 12.78l-2.53 3.85h-77.12l-4.16 4.16c-3.415 3.41-4.17 5.37-4.17 10.79 0 5.43.755 7.38 4.17 10.79l4.162 4.17h40.924c26.54 0 42.83-.57 46.35-1.62 8.27-2.47 14.95-8.89 20.06-19.25 3.87-7.86 4.72-11.39 5.21-21.81 1.003-20.97-6.435-38.2-19.69-45.6-6.196-3.45-7.52-3.6-38.796-4.29-38.81-.85-37.464-.26-37.464-16.38 0-16.37-2.27-15.53 44.2-16.38 38.314-.69 39.18-.78 42.35-3.94 2.71-2.71 3.32-5.09 3.76-14.69zm-183.407.18c-24.83 0-44.928.63-49.2 1.547-11.754 2.52-19.882 8.967-25.692 20.385-4.738 9.31-5 10.582-5 24.213 0 13.2.372 15.18 4.513 23.91 3.24 6.85 6.21 10.75 10.56 13.9 10.03 7.26 17.3 8.63 46.11 8.65 28.86.03 31.87.77 34.64 8.56 2.04 5.76 1.08 16.33-1.91 20.97-2.05 3.2-2.22 3.21-39.89 3.21-45.87 0-47.54.53-47.54 14.96 0 7.39 1.46 10.45 6.32 13.24 3.59 2.06 80.48 2.36 87.52.34 21.86-6.27 33.24-38.28 23.52-66.17-3.24-9.28-14.89-21.33-22.67-23.45-3.22-.87-17.97-1.55-33.79-1.56-17.93 0-29.37-.59-31.64-1.63-4.7-2.14-6.97-11.96-4.94-21.42 1.2-5.6 2.12-6.9 5.82-8.19 2.68-.93 18.253-1.53 39.87-1.53 39.16 0 40.85-.34 43.82-8.85.84-2.41 1.53-8.14 1.53-12.72v-8.33zm-166.842.712c-26.754 0-27.18.05-35.18 3.975-12.895 6.328-20.943 17.725-28.37 40.178-3.112 9.41-3.326 12.53-3.833 55.44-.567 47.96-.31 50.28 5.9 53.28 5.746 2.78 14.67 1.95 19-1.77 3.89-3.34 4.01-3.88 4.476-19.94l.47-16.5h76.72v32.51l4.38 3.69c6.47 5.45 15.71 5.2 21.5-.59l4.29-4.28-.63-44.49c-.7-49.25-1.46-54.7-10.27-72.99-5.95-12.35-13.1-19.894-23.47-24.753-7.68-3.6-8.8-3.72-35.02-3.72zm444.726 0c-25.418 0-27.54.207-34.532 3.366-13.732 6.204-24.112 21.355-30.652 44.74-2.493 8.915-2.968 15.865-3.555 52.023-.718 44.19-.29 48.05 5.82 52.327h.004c3.846 2.69 12.756 2.66 18.02-.06 5.328-2.75 7.104-9.066 7.114-25.277l.01-12.463h75.55v14.313c0 15.158 1.8 21.29 7.05 24.1 4.02 2.15 14.67 1.788 18.1-.613 6.12-4.278 6.58-8.273 5.89-50.944-.72-44.727-1.99-53.542-10.33-71.738-5.87-12.81-13.08-20.79-23.32-25.815-7.96-3.908-8.42-3.96-35.15-3.96zm0 29.14c9.007 0 18.014.696 21.35 2.09 8.72 3.64 16.36 24.09 16.404 43.902l.02 9.614H630.31v-10.12c0-19.32 7.737-39.772 16.42-43.397 3.337-1.393 12.345-2.09 21.35-2.09zm-447.585.197c2.426-.017 4.975.006 7.562.078l17.62.495 4 4.47c2.2 2.46 5.33 8.045 6.97 12.41 3.21 8.59 6.78 32.175 5.41 35.753-.74 1.91-5.86 2.21-38.67 2.21h-37.81l.02-8.19c.03-11.68 3.33-25.67 8.41-35.72 3.93-7.78 4.99-8.83 10.4-10.29 2.65-.71 8.81-1.15 16.09-1.2z" fill="#d40000"/><path d="M652.693 184.608c-18.925 0-37.848.864-43.598 2.594-11.26 3.39-20.956 10.524-26.004 19.138-20.25 34.557-17.81 125.858 4.02 150.013 6.13 6.777 12.64 11.013 21.02 13.668 2.36.75 23.58 1.21 47.14 1.03 48.44-.38 50.53-.86 63-14.66 21.85-24.18 24.31-115.47 4.04-150.04-5.04-8.61-14.74-15.75-26-19.13-5.75-1.73-24.67-2.59-43.6-2.59zm-363.263.27c-5.307 0-11.677.068-19.443.192-35.382.56-38.618.876-45.905 4.472-23.08 11.39-32.71 37.736-32.715 89.473-.004 52.55 11.303 81.286 35.35 89.824 5.233 1.85 16.947 2.48 48.054 2.57 39.96.11 41.38 0 49.71-3.98 16.19-7.74 23.9-19.25 29.55-44.16 4.24-18.66 4.1-71.03-.22-90.01-6.2-27.21-16.56-40.33-36.35-46.08-5.74-1.67-12.08-2.31-28-2.32zm-209.492.727c-50.43 0-52.77.146-57.31 3.535-2.604 1.944-6.325 5.663-8.268 8.265-3.44 4.608-3.547 6.95-4.024 89.446l-.49 84.72H45.96v-51.42h55.99l13.258 25.71 13.253 25.71h41.13L154.17 342l-15.422-29.565 9.604-7.713c22.546-18.102 29.87-50.226 19.267-84.55-4.28-13.85-13.73-24.912-26.04-30.475-8.93-4.032-9.88-4.095-61.64-4.095zm373.082 0c-51.094 0-51.454.024-57.015 3.99-11.052 7.883-10.837 6-10.307 91.037l.478 77.003 5.142 5.43c2.828 2.987 6.685 6.074 8.57 6.86 1.885.784 26.233 1.475 54.106 1.535 59.14.127 64.208-.71 76.046-12.546 16.794-16.795 19.194-50.61 5.08-71.58l-5.59-8.306 5.8-9.624c14.353-23.837 11.155-56.41-7.118-72.494-11.98-10.547-17.018-11.305-75.192-11.305zM45.96 220.74h37.597c20.754 0 39.602.765 42.075 1.705 8.712 3.313 13.303 24.35 8.74 40.046-3.09 10.63-9.416 17.08-19.48 19.88-3.505.98-20.45 1.78-37.652 1.78l-31.28.01v-63.42zm227.736 0c17.877 0 33.75.48 35.276 1.066 11.544 4.43 16.73 61.806 8.697 96.22-1.6 6.846-4.06 13.594-5.46 14.998-3.44 3.438-72.84 3.813-75.64.408-.97-1.178-3.18-6.77-4.9-12.426-2.54-8.325-3.14-16.16-3.16-41.134-.03-34.55 2.18-48.64 8.64-55.097 3.95-3.952 4.69-4.034 36.53-4.034zm147.616 0h39.23c46.77 0 47.072.103 47.23 15.925.104 10.41-3.572 17.402-11.21 21.327-2.875 1.478-14.872 2.125-39.686 2.143l-35.564.027v-39.42zm231.38.744c18.21 0 36.42.71 37.842 2.133 10.633 10.633 11.18 91.952.726 107.907-2.65 4.045-2.706 4.05-38.567 4.05-41.862 0-39.256 1.233-43.886-20.76-5.214-24.773-1.298-83.854 6.046-91.197 1.422-1.422 19.63-2.133 37.84-2.133zm-231.38 74.422l35.564.553c40.154.62 43.968 1.6 49.242 12.72 3.218 6.78 2.668 19.61-1.034 24.07-1.516 1.82-10.57 2.31-42.848 2.31h-40.924V295.9z" fill="#06f"/></svg>