<?xml version="1.0" encoding="UTF-8" standalone="no"?>
<svg
   xmlns:dc="http://purl.org/dc/elements/1.1/"
   xmlns:cc="http://creativecommons.org/ns#"
   xmlns:rdf="http://www.w3.org/1999/02/22-rdf-syntax-ns#"
   xmlns:svg="http://www.w3.org/2000/svg"
   xmlns="http://www.w3.org/2000/svg"
   xmlns:sodipodi="http://sodipodi.sourceforge.net/DTD/sodipodi-0.dtd"
   xmlns:inkscape="http://www.inkscape.org/namespaces/inkscape"
   viewBox="0 0 482.79999 482.79999"
   height="482.8"
   width="482.8"
   id="svg2"
   version="1.1"
   inkscape:version="0.91 r13725"
   sodipodi:docname="russian-post.svg">
  <metadata
     id="metadata17">
    <rdf:RDF>
      <cc:Work
         rdf:about="">
        <dc:format>image/svg+xml</dc:format>
        <dc:type
           rdf:resource="http://purl.org/dc/dcmitype/StillImage" />
      </cc:Work>
    </rdf:RDF>
  </metadata>
  <sodipodi:namedview
     pagecolor="#ffffff"
     bordercolor="#666666"
     borderopacity="1"
     objecttolerance="10"
     gridtolerance="10"
     guidetolerance="10"
     inkscape:pageopacity="0"
     inkscape:pageshadow="2"
     inkscape:window-width="1366"
     inkscape:window-height="705"
     id="namedview15"
     showgrid="false"
     inkscape:zoom="0.48881526"
     inkscape:cx="241.39999"
     inkscape:cy="241.39999"
     inkscape:window-x="-8"
     inkscape:window-y="-8"
     inkscape:window-maximized="1"
     inkscape:current-layer="svg2" />
  <defs
     id="defs4">
    <clipPath
       id="a">
      <path
         d="M0 0h3862v1870.83H0V0z"
         id="path7" />
    </clipPath>
  </defs>
  <g
     clip-path="url(#a)"
     transform="matrix(0.18797967,0,0,-0.1792234,63.379662,427.44068)"
     id="g9"
     style="fill-rule:evenodd">
    <path
       d="m 0,0 1872.11,0 0,1870.83 L 0,1870.83 0,0 Z"
       id="path11"
       inkscape:connector-curvature="0"
       style="fill:#2056ae" />
    <path
       d="m 770.094,550.79 c -20.582,25.09 -31.03,58.02 -31.012,97.92 -0.02,40.88 9.94,73.85 29.57,97.9 21.375,26.3 52.89,39.66 93.703,39.66 l 3.137,0 0,68.218 -3.137,0 c -63.625,0 -112.722,-19.898 -145.964,-59.18 -30.236,-35.5 -45.536,-85.007 -45.536,-147.136 0,-60.03 16.628,-109.363 49.43,-146.71 34.507,-39.212 82.616,-59.103 143.03,-59.103 l 3.11,0 0,68.21 -3.11,0 c -39.84,0 -71.222,13.54 -93.218,40.22 z m -178.55,247.34 c -20.122,37.42 -48.622,56.358 -84.73,56.358 -34.212,0 -61.416,-19.066 -80.892,-56.668 -19.102,-37 -28.805,-86.13 -28.805,-146.04 0,-62.09 9.293,-112.202 27.574,-148.96 18.64,-37.46 46.29,-56.44 82.125,-56.44 36.43,0 65.277,19.858 85.7,59.06 19.108,36.81 28.83,86.232 28.83,146.88 0,59.97 -10.038,109.02 -29.8,145.81 z M 543.75,548.32 c -8.477,-25.71 -20.945,-38.75 -37.016,-38.75 -15.42,0 -27.574,13.25 -36.03,39.32 -8.845,27.13 -13.34,61.56 -13.34,102.33 0,41.85 4.39,76.28 13.1,102.35 8.298,25.008 20.516,37.72 36.27,37.72 17.883,0 30.637,-12.51 38.934,-38.24 7.574,-23.24 11.402,-57.12 11.402,-100.73 0,-42.18 -4.472,-77.16 -13.32,-104 z m 468.69,2.47 c -20.56,25.09 -31,58.05 -31,97.92 0,40.88 9.95,73.85 29.59,97.9 21.37,26.3 52.91,39.66 93.68,39.66 l 3.11,0 0,68.218 -3.11,0 c -63.62,0 -112.745,-19.898 -145.94,-59.18 -30.22,-35.5 -45.547,-85.007 -45.547,-147.136 0,-60.03 16.617,-109.363 49.43,-146.71 34.492,-39.212 82.617,-59.103 143.027,-59.103 l 3.14,0 0,68.21 -3.14,0 c -39.86,0 -71.21,13.54 -93.24,40.22 z m 221.37,156.78 0,137.532 -63.23,0 0,-390.992 63.23,0 0,160.6 91.69,97.07 9.13,-257.67 64.44,0 -15.58,409.77 -149.68,-156.31 z m 451.31,156.31 -149.67,-156.31 0,137.532 -63.24,0 0,-390.992 63.24,0 0,160.6 91.68,97.07 9.14,-257.67 64.44,0 -15.59,409.77 z M 334.188,783.327 c -19.387,40.602 -51.575,61.16 -95.618,61.16 l -67.04,0 0,-390.117 64.24,0 0,113.38 c 12.457,-10.898 26.003,-17.41 40.85,-17.41 21.384,0 39.193,11.308 52.95,33.558 15.39,25.05 23.16,62.14 23.16,110.282 0,33.52 -6.242,63.51 -18.542,89.148 z m -95.747,2.942 c 14.957,0 26.367,-8.21 34.88,-25.21 8.77,-17.45 13.205,-45.4 13.205,-83.13 0,-19.96 -2.812,-35.57 -8.363,-46.27 -5.175,-10.03 -11.225,-15.09 -17.987,-15.09 -6.55,0 -12.05,4.326 -16.805,13.32 -5.047,9.47 -7.597,23.36 -7.597,41.33 l 0,115.05 2.67,0 m 1417.17,526.61 c 0.04,37.69 -11.61,66.15 -34.57,84.04 -18.25,14.41 -43.28,21.74 -74.37,21.74 l -107.21,0 -13.31,-393.27 72.37,0 c 0,0 6.67,183.35 7,191.95 7.83,0 82.95,-0.06 90.29,-0.06 0.86,-8 20.31,-191.92 20.31,-191.92 l 72.89,0.03 -33.4,287.49 z m -148.83,-30.15 c 0.22,7.94 1.6,62.98 1.77,70.57 l 26.18,0 c 18.66,0 31.5,-5.6 39.27,-17.12 6.22,-9.57 10.64,-28.07 13.5,-53.45 l -80.72,0 z m -513.928,-1.03 -39.39,0 c -16.24,0 -28.35,3.69 -35.99,10.97 -5.554,5.17 -8.218,12.08 -8.218,21.12 l 0,104.87 -72.388,0 0,-112.29 c 0,-25.86 10.24,-47.74 30.42,-65.11 19.92,-17.2 44.37,-25.9 72.69,-25.9 l 52.872,0 0,-189.97 72.348,0 0,393.27 -72.348,0 0,-136.959 z m 158.898,136.96 0,-65.36 59.99,0 0,-327.91 72.35,0 0,327.91 60.97,0 0,65.36 -193.31,0 z m -427.945,-47 c -22.672,37.81 -54.75,57 -95.383,57 -38.54,0 -69.188,-19.31 -91.133,-57.36 -21.45,-37.16 -32.34,-86.6 -32.34,-146.92 0,-62.42 10.44,-112.85 30.97,-149.86 21.03,-37.9 52.14,-57.13 92.5,-57.13 41.03,0 73.52,20.09 96.513,59.73 21.46,37.07 32.347,86.78 32.347,147.79 0,60.3 -11.25,109.66 -33.475,146.75 z m -95.246,-287.9 c -17.06,0 -29.97,12.55 -39.413,38.37 -9.856,26.96 -14.856,61.19 -14.856,101.71 0,41.57 4.93,75.77 14.598,101.66 9.212,24.79 22.215,36.81 39.67,36.81 19.624,0 33.557,-12.18 42.65,-37.27 8.423,-23.07 12.712,-56.78 12.712,-100.13 0,-41.9 -5.02,-76.68 -14.852,-103.31 -9.437,-25.46 -22.668,-37.84 -40.51,-37.84 z m -456.588,334.9 0,-393.27 72.347,0 0,327.91 89.62,0 0,-327.91 72.353,0 0,393.27 -234.32,0"
       id="path13"
       inkscape:connector-curvature="0"
       style="fill:#ffffff" />
  </g>
</svg>
