<svg xmlns="http://www.w3.org/2000/svg" viewBox="0 0 363.03751 309.85001" height="309.85" width="363.038"><defs><clipPath id="a"><path d="M0 0h2904v2478.79H0V0z"/></clipPath></defs><g clip-path="url(#a)" transform="matrix(.1 0 0 -.1 0 309.9)"><path d="M412.098 7.59h-90.192L268.77 203.738c-6.22 23.633-9.665 51.692-9.665 51.692h-1.054s-3.716-28.06-10.642-51.692L194.78 7.59h-90.073L4.344 351.95h87.488l49.188-210.93c5.593-25.59 9.117-56.032 9.117-56.032h.933s5.328 30.442 11.938 56.032l55.324 210.93h79.863l55.524-210.93c6.372-25.59 11.852-56.032 11.852-56.032h1.055s3.21 30.442 8.686 56.032l49.457 210.93h87.533L412.098 7.59M731.5 173.81c-64.29-3.33-120.36-9.08-120.36-60.85 0-32.44 25.864-50.94 70.86-50.94 18.508 0 40.38 3.128 49.5 6.84v104.95zM684.586 0C581.05 0 529.324 40.852 529.324 111.12c0 93.91 97.582 112.38 202.176 118.13v17.88c0 35.84-24.97 49.222-64.723 49.222-32.472 0-71.836-10.25-96.367-20.46L548.535 334.7c28.914 12.17 78.02 25 127.832 25 88.426 0 137.22-34.59 137.22-122.78v-212C788.19 11.463 736.194 0 684.587 0m194.85 7.59h86.79v501.5h-86.79V7.59zm159.603 0h87.063v501.5h-87.063V7.59zm299.02 288.762c-45.43 0-77.2-33.223-78.53-97.66l144.62 19.796c0 51.774-25.99 77.864-66.09 77.864zm148.76-122.543l-221.7-30.13c7.83-50.4 44.88-75.52 95.4-75.52 34.55 0 71.44 9.076 95.74 21.8l25.01-65.04C1452.55 10.332 1404.15 0 1354.18 0c-113.67 0-173.89 74.03-173.89 180.148 0 105.442 59.48 179.55 159.84 179.55 95 0 148.22-62.678 148.22-156.628 0-9.582 0-19.172-1.53-29.26M1656.91 2.582c-66.36 0-97.7 36.348-97.7 108.54V286.77h-43.98v65.18h43.98v76.62l85.14 24.88v-101.5h64.87v-65.18h-64.87V116.88c0-28.142 17.45-37.732 39.99-37.732 9.04 0 19.13 2.55 24.88 5.05V12.052c-10.37-4.93-31.26-9.468-52.31-9.468" fill="#100f0d"/><path d="M2047.88 291.23c-46.06 0-69.03-41.6-69.03-110.378 0-69.14 22.97-109.954 69.03-109.954 46.17 0 69.13 40.813 69.13 109.954 0 68.777-22.96 110.378-69.13 110.378zm0-291.23c-100.37 0-155.97 77.238-155.97 180.148 0 102.82 55.6 179.55 155.97 179.55 100.32 0 155.77-76.73 155.77-179.55C2203.65 77.238 2148.2 0 2047.88 0m408.18 7.59v226.79c0 34.59-21.05 55.632-60.73 55.632-20.27 0-40.42-3.91-51.92-8.37V7.59h-86.75V334.7c36.47 14.71 80.49 25 137.3 25 102.32 0 149.55-42.302 149.55-116.25V7.59h-87.45m298.31 288.762c-45.35 0-77.4-33.223-78.73-97.66l144.46 19.796c0 51.774-25.66 77.864-65.73 77.864zM2902.9 173.81l-221.58-30.13c7.86-50.4 44.64-75.52 95.19-75.52 34.67 0 71.49 9.078 95.75 21.8l25.16-65.038C2868.7 10.332 2820.1 0 2770.29 0c-113.55 0-173.72 74.03-173.72 180.148 0 105.442 59.39 179.55 159.64 179.55 95.19 0 148.13-62.678 148.13-156.628 0-9.582 0-19.172-1.44-29.26" fill="#b71a35"/><path d="M2332.76 1911.67c-86.2 86.35-232.42 81.23-324.79-11.07l-335.53-335.45v676.1c0 130.64-99.73 237.54-221.89 237.54-52.08 0-99.5-20.34-137.54-52.83-13.5-9.03-26.13-19.25-37.99-31.14l-831.036-831.31v677.74c0 130.64-100.007 237.54-222.007 237.54C99.62 2478.79 0 2371.89 0 2241.25V1053.52c0-49.62 14.516-95.668 39.324-133.97 8.567-15.23 18.742-29.628 31.614-42.62 27.273-27.07 60.535-44.09 95.824-53.45l.785-.23c77.12-19.72 165.238 1.61 228.078 64.72l833.065 832.72v-667.17c0-35.41 7.71-68.79 20.74-99 10.37-28.4 26.53-55.2 48.83-77.59 86.16-86.39 232.54-81.3 324.8 11.04l698.87 698.82c92.38 92.23 97.23 238.33 10.83 324.88" fill="#100f0d"/><path d="M2882 2241.09c2.82 59.82-17.45 119.22-61.27 163.16-45.74 45.86-108.5 65.7-171.07 60.69-26.61-1.37-52.08-7.9-75.36-18.55-28.64-12.09-55.21-29.85-78.53-53.18l-448.29-448.51c-92.61-92.62-97.58-238.68-11.5-324.93 86.47-86.35 232.46-81.26 324.92 11l77.63 77.63v-668.38c0-130.688 100.01-237.59 221.85-237.59 121.96 0 221.62 106.902 221.62 237.59v1201.07" fill="#b71a35"/></g></svg>