<?xml version="1.0" encoding="UTF-8" standalone="no"?>
<svg
   xmlns:dc="http://purl.org/dc/elements/1.1/"
   xmlns:cc="http://creativecommons.org/ns#"
   xmlns:rdf="http://www.w3.org/1999/02/22-rdf-syntax-ns#"
   xmlns:svg="http://www.w3.org/2000/svg"
   xmlns="http://www.w3.org/2000/svg"
   xmlns:sodipodi="http://sodipodi.sourceforge.net/DTD/sodipodi-0.dtd"
   xmlns:inkscape="http://www.inkscape.org/namespaces/inkscape"
   width="210mm"
   height="210mm"
   viewBox="0 0 744.09448819 1052.3622047"
   id="svg2"
   version="1.1"
   inkscape:version="0.91 r13725"
   sodipodi:docname="webmoney.svg">
  <metadata
     id="metadata16">
    <rdf:RDF>
      <cc:Work
         rdf:about="">
        <dc:format>image/svg+xml</dc:format>
        <dc:type
           rdf:resource="http://purl.org/dc/dcmitype/StillImage" />
      </cc:Work>
    </rdf:RDF>
  </metadata>
  <defs
     id="defs14" />
  <sodipodi:namedview
     pagecolor="#ffffff"
     bordercolor="#666666"
     borderopacity="1"
     objecttolerance="10"
     gridtolerance="10"
     guidetolerance="10"
     inkscape:pageopacity="0"
     inkscape:pageshadow="2"
     inkscape:window-width="1366"
     inkscape:window-height="705"
     id="namedview12"
     showgrid="false"
     inkscape:zoom="0.31716402"
     inkscape:cx="-94.588288"
     inkscape:cy="372.04724"
     inkscape:window-x="-8"
     inkscape:window-y="-8"
     inkscape:window-maximized="1"
     inkscape:current-layer="svg2" />
  <g
     id="g4"
     transform="matrix(1.0219164,0,0,1.021877,-5.8789549,59.482107)"
     style="fill:#1d70bf">
    <path
       d="m 363.814,95.12 c 40.267,0 78.402,9.393 112.36,26.072 5.342,2.536 10.662,5.33 15.992,8.406 l -23.603,21.174 -35.47,-36.748 -59.866,53.5 -35.558,-38.88 -111.519,100.716 71.488,78.943 -28.09,24.755 70.417,79.063 -27.935,24.7 100.63,112.23 59.73,-55.09 51.637,59.039 c -10.268,8 -21.457,15.53 -33.784,22.49 -37.348,21.336 -80.503,33.55 -126.432,33.55 -141.25,0 -256.45,-115.44 -256.45,-256.95 0,-141.54 115.2,-256.963 256.45,-256.963"
       id="path6"
       inkscape:connector-curvature="0"
       style="fill-rule:evenodd" />
    <path
       d="m 317.073,335.836 60.983,-55.025 54.918,61.12 -60.983,55.01 -54.91,-61.1 m 43.37,105.58 60.99,-55.01 54.92,61.11 -60.98,55.03 -54.92,-61.12 m -87,-209.93 60.983,-55 54.897,61.1 -60.99,55.01 -54.9,-61.1 m 111.9,-29.61 45.735,-41.257 41.177,45.825 -45.735,41.27 -41.183,-45.84 m 81.27,188.99 45.75,-41.27 41.18,45.84 -45.737,41.26 -41.192,-45.826 m 40.24,92.56 45.722,-41.27 41.192,45.817 -45.737,41.258 -41.18,-45.81 m 18.423,-212.15 30.487,-27.506 27.454,30.55 -30.48,27.5 -27.46,-30.545 m -38.96,-90.773 30.497,-27.502 27.455,30.547 -30.5,27.5 -27.46,-30.55 m 77.94,181.54 30.483,-27.51 27.457,30.544 -30.485,27.506 -27.455,-30.547 M 427.51,294.05 l 45.737,-41.274 41.18,45.824 -45.722,41.258 -41.192,-45.81"
       id="path8"
       inkscape:connector-curvature="0"
       style="fill-rule:evenodd" />
    <path
       d="m -49.982,754.504 -1.52,0 -28.63,108.982 -23.414,0 -35.134,-154.843 24.287,0 24.29,115.533 1.517,0 28.193,-115.533 19.3,0 30.148,115.533 1.513,0 22.116,-115.533 25.376,0 -35.132,154.843 -23.422,0 -29.486,-108.982 m 184.136,84.956 0,16.596 c -9.756,5.683 -22.77,10.056 -38.385,10.056 -36.42,0 -51.39,-22.715 -51.39,-57.228 0,-33.19 16.7,-57.217 49.23,-57.217 27.11,0 43.8,17.696 43.8,53.292 l 0,8.07 -70.691,0 c 0,26.2 10.625,37.78 32.963,37.78 11.706,0 22.55,-4.15 34.475,-11.36 z m -67.003,-41.054 49.653,0 c -1.077,-22.935 -12.14,-32.1 -23.85,-32.1 -13.235,0 -23.423,10.264 -25.803,32.1 m 112.535,-38.653 c 6.507,-3.493 17.564,-8.086 29.275,-8.086 26.89,0 41.418,18.788 41.418,53.735 0,40.832 -19.51,60.71 -50.95,60.71 -11.5,0 -29.28,-3.715 -42.29,-10.713 l 0,-152.429 22.56,-5.46 0,62.243 z m -0.214,87.57 c 6.936,3.06 14.53,3.493 19.953,3.493 16.05,0 28.192,-10.044 28.192,-45.414 0,-27.742 -9.98,-36.695 -24.51,-36.695 -8.68,0 -14.96,2.404 -23.64,7.206 l 0,71.41 m 169.57,-16.597 1.09,0 46.4,-122.083 26.89,0 0,154.843 -23.41,0 0,-112.252 -1.96,0 -44.24,112.252 -13.87,0 -44.239,-109.628 -1.947,0 0,109.628 -19.513,0 0,-154.843 26.24,0 48.57,122.083 m 98.24,-21.842 c 0,-38.22 20.822,-57.217 49.442,-57.217 28.63,0 49.45,18.998 49.45,57.217 0,37.35 -19.738,57.228 -49.45,57.228 -29.71,0 -49.442,-19.878 -49.442,-57.228 z m 76.117,0 c 0,-29.478 -11.928,-41.922 -26.675,-41.922 -14.314,0 -26.672,12.444 -26.672,41.922 0,29.93 11.28,41.932 26.672,41.932 15.4,0 26.675,-12.002 26.675,-41.932 M 566.78,767.83 c 9.758,-5.897 30.362,-16.163 55.292,-16.163 26.034,0 35.784,10.266 35.784,32.757 l 0,79.062 -22.552,0 0,-74.036 c 0,-17.25 -8.45,-20.308 -19.507,-20.308 -8.68,0 -19.74,3.938 -26.464,7.862 l 0,86.482 -22.553,0 0,-95.656 m 201.017,71.63 0,16.596 c -9.753,5.683 -22.763,10.056 -38.38,10.056 -36.425,0 -51.395,-22.715 -51.395,-57.228 0,-33.19 16.703,-57.217 49.23,-57.217 27.114,0 43.813,17.696 43.813,53.292 l 0,8.07 -70.695,0 c 0,26.2 10.62,37.78 32.96,37.78 11.704,0 22.547,-4.15 34.467,-11.36 z m -67,-41.054 49.657,0 c -1.078,-22.935 -12.147,-32.1 -23.853,-32.1 -13.23,0 -23.41,10.264 -25.8,32.1 m 154.62,-43.024 23.21,0 -39.25,109.194 c -10.84,30.142 -24.08,45.86 -49,45.86 l 0,-17.898 c 14.75,0 23.84,-11.803 29.06,-27.962 L 777.8,755.382 l 23.86,0 27.752,80.36 1.293,0 24.73,-80.36"
       id="path10"
       inkscape:connector-curvature="0" />
  </g>
</svg>
