<svg xmlns="http://www.w3.org/2000/svg" viewBox="0 0 347.64999 347.64999" height="347.65" width="347.65"><path d="M142.638 152.02c-.954-.025-1.845.084-2.623.332-5.24 1.67-9.05 9.634-9.07 18.954-.02 8.156 3.118 14.19 8.345 16.056 2.216.79 4.364.782 7.107-.033 2.67-.8 3.39-1.52 3.012-3.04-.28-1.09-.37-1.12-4.15-1.05-4.65.08-5.78-.5-7.55-3.9-1.06-2.04-1.2-2.86-1.36-7.95-.15-4.85-.03-6.14.78-8.81 1.25-4.11 2.88-5.99 5.15-5.92.93.02 2.23.46 2.93.98.69.51 1.35.93 1.46.93.11 0 .82-1.01 1.59-2.25l1.38-2.25-1.98-.87c-1.7-.76-3.47-1.16-5.06-1.2zm-48.23.334c-6.54 0-10.702 7.508-10.702 19.318 0 7.728 2.192 13.036 6.37 15.433 1.888 1.082 2.835 1.33 5.088 1.335 3.59.005 7.7-1.453 7.7-2.732 0-1.562-.856-2.682-1.818-2.376-.48.152-2.163.284-3.738.294-5.268.03-7.96-3.04-8.007-9.13l-.02-3.057 7.24.05 7.24.05v-1.15c0-.64-.21-3.08-.47-5.43-.91-8.2-4.02-12.63-8.87-12.63zm-61.048.89V188h5.345v-16.49h8.464v16.53l2.56-.133 2.56-.136.11-17.26.11-17.26h-5.33l-.13 6.8-.12 6.8-4.13.13-4.13.13v-13.85h-5.34zm29.99 0l-.297 7.687c-.328 8.5-1.23 13.77-3.266 19.03-1.027 2.66-1.505 3.38-2.383 3.59-1.078.26-1.1.35-1.225 5.34-.07 2.8-.03 5.34.09 5.66.28.74 3.44.78 4.17.05.31-.31.53-1.8.53-3.56V188h14.71v3.006c.01 3.84.26 4.214 2.71 4.038l1.96-.14.12-5.65.12-5.65-1.24-.142-1.24-.143-.11-15.04-.12-15.04H63.35zm46.645 0V188h4.883l.12-9.025.12-9.022 3.893 8.02c2.14 4.41 4.07 8.32 4.28 8.688.27.47 1.3.71 3.35.81 1.63.07 2.96-.01 2.96-.18 0-.17-1.77-3.53-3.95-7.48-2.17-3.94-4.39-8.04-4.93-9.1l-.97-1.93 2.99-5.42c1.65-2.98 3.58-6.47 4.3-7.76l1.32-2.34h-5.73l-3.75 7.69-3.75 7.69-.12-7.68-.12-7.69H110zm-16.438 3.275c2.124-.16 3.934 3.08 4.086 7.73l.1 3.03-4.184.13-4.19.12.22-3.03c.25-3.5 1.6-6.94 3.03-7.71.31-.17.62-.26.92-.28zm-20.99.68v26.34h-4.9c-2.695 0-4.902-.07-4.902-.16s.708-1.69 1.572-3.56c1.907-4.13 3.256-10.46 3.682-17.27l.31-5.08 2.11-.14 2.11-.14z"/><path d="M159.403 216.176c-.105-.28-.144-21.507-.088-47.168l.104-46.657 79.91-.09c43.95-.05 80.1.04 80.34.21.5.36 26.24 45.78 26.49 46.76.17.66-25.61 46.56-26.49 47.16-.24.17-36.36.31-80.27.31-63.5.01-79.87-.09-80.02-.5zm155.546-6.958c.77-.98 22.52-39.256 22.52-39.642 0-.373-19.86-35.362-21.87-38.528l-.98-1.535H241.2c-56.57 0-73.53.113-73.9.492-.697.712-.697 78.522 0 79.234.717.73 147.058.71 147.64-.03z" fill="#faca05"/><path d="M2.484 189.216c-.308-.127-.56-.412-.56-.633 0-.22 2.35-4.767 5.225-10.103l5.22-9.702-1.31-.94c-5.23-3.74-7.49-8.092-7.49-14.42 0-6.5 1.74-11 5.57-14.344 2.76-2.415 5.44-3.076 11.84-2.92l5.31.13.11 26.244c.12 28.22.22 26.97-2.21 26.983-2.68.02-2.61.26-2.61-9.6 0-4.98-.13-9.37-.28-9.77-.37-.99-2.98-.94-3.86.08-.38.44-2.62 4.75-4.98 9.58-2.41 4.93-4.67 8.99-5.16 9.26-.89.49-3.84.6-4.85.18zm18.565-32.6c.06-4.397-.04-9.846-.23-12.108l-.34-4.113h-3.13c-2.54 0-3.4.196-4.56 1.04-2.22 1.615-3.84 5.466-4.08 9.706-.49 8.69 3.24 13.9 9.75 13.59l2.46-.11z" fill="#f52815"/><path d="M204.15 152.575c-.29.014-.667.06-1.16.124-2.704.35-4.73 2.55-6.453 7.01-2.178 5.64-4.202 7.53-8.056 7.53h-2.02v-14.26H182v34.62l2.117-.05 2.115-.05.123-8.13.12-8.13h2.208c4.018 0 5.56 1.55 8.833 8.91 2.845 6.39 2.842 6.39 4.986 7.47 1.1.56 2.5.96 3.112.89.964-.11 1.133-.38 1.25-1.99.11-1.5-.026-1.91-.71-2.13-1.446-.46-2.593-2.12-4.346-6.27-.93-2.21-2.14-4.69-2.692-5.51-1.046-1.56-3.3-3.18-4.43-3.18-1.195 0-.683-.66 1.234-1.58 1.952-.94 2.824-2.28 5.62-8.63.763-1.73 1.403-2.52 2.328-2.87 1.5-.566 1.74-1.026 1.417-2.716-.172-.9-.263-1.146-1.133-1.104zm69.08 11.507c-2.032-.054-4.062.234-5.48.877-2.437 1.1-5.326 4.47-5.946 6.93-.645 2.56-.633 6.43.027 9.05.68 2.66 3.88 6 6.41 6.67 4.17 1.1 8.84.42 11.84-1.71 1.3-.93 1.31-.98.54-1.84-1.5-1.67-2.17-1.76-4.22-.58-2.38 1.36-5.35 1.47-7.33.26-2.09-1.28-3.29-4.16-3.28-7.87.02-6.95 5.03-10.49 10.92-7.72 2.14 1 2.84.82 3.81-1.01.37-.68.1-.98-1.79-1.93-1.41-.72-3.44-1.11-5.48-1.17zm-51.226.04c-2.422 0-4.13.273-5.792.923-2.91 1.14-3.23 1.438-2.635 2.48 1.136 1.993 1.148 2 2.762 1.334 2.6-1.08 5.88-1.32 7.67-.58 1.3.54 1.69 1.02 2.1 2.53.27 1.02.43 1.91.36 1.98-.08.06-2.17.33-4.65.58-6.59.68-9.89 2.72-10.61 6.56-.38 1.99 1.09 5.26 2.98 6.63 2.44 1.77 8.53 1.42 11.51-.67 1.15-.81 1.16-.8 2.11.48.53.72 1.49 1.36 2.18 1.47.68.1 1.38.21 1.55.25.46.09 1.24-1.52 1.24-2.58 0-.51-.19-.92-.42-.92-.23 0-.73-.32-1.12-.7-.58-.58-.7-1.91-.7-7.48 0-6.15-.1-6.97-1.01-8.77-1.37-2.71-3.15-3.55-7.56-3.55zm74.408 0c-2.422 0-4.132.273-5.792.923-2.912 1.14-3.23 1.438-2.636 2.48 1.142 2.003 1.14 2.003 2.985 1.228.98-.412 3.09-.76 4.79-.79 2.7-.048 3.14.066 3.89.998.47.58.85 1.71.85 2.5 0 1.42-.06 1.46-2.34 1.73-1.29.16-3.04.29-3.9.29-2.13.01-5.8 1.8-7.26 3.54-2.48 2.94-1.24 8.14 2.36 9.95 2.79 1.41 7.91.91 10.72-1.05 1.14-.8 1.16-.79 2.11.49.53.73 1.49 1.37 2.18 1.48.68.1 1.34.22 1.48.26.13.04.48-.18.78-.47.63-.63.72-3.03.12-3.03-.23 0-.73-.31-1.11-.7-.57-.57-.7-1.91-.7-7.48 0-6.14-.09-6.97-1-8.77-1.37-2.71-3.15-3.54-7.56-3.54zm-47.803.008c-3.13 0-3.85.16-5.85 1.31-8.24 4.726-7.68 18.984.87 22.014 2.26.802 6.5.907 8.8.217.94-.28 2.36-1.07 3.17-1.75l1.46-1.25-1.3-1.13c-.71-.62-1.34-1.14-1.4-1.14-.06 0-.98.5-2.05 1.11-3.83 2.19-7.89 1.14-9.8-2.54-1.48-2.84-1.39-7.55.2-10.27 2.02-3.45 5.98-4.37 10.21-2.36 1.76.84 1.83.81 3.41-1.19.55-.7.37-.88-1.79-1.89-1.92-.89-3.09-1.11-5.96-1.11zm52.35 12.344l-.05 1.51c-.08 2.67-.61 3.636-2.8 5.15-3.89 2.676-8.03 1.717-8.03-1.858 0-2.71 2.32-4.02 8.08-4.547l2.78-.26zm-76.37.123h1.96v1.81c0 2.376-.51 3.226-2.87 4.856-3.63 2.493-7.82 1.53-7.82-1.795 0-.75.2-1.746.45-2.21.56-1.05 5.57-2.66 8.28-2.66z"/></svg>