<svg xmlns="http://www.w3.org/2000/svg" viewBox="0 0 347.64999 347.64999" height="347.65" width="347.65"><path d="M85.442 116.674c0-12.242 1.026-20.01 26.38-38.936 20.988-15.668 88.265-69.21 88.265-69.21v89.378h51.163v128.64H101.422c-8.79 0-15.983-7.195-15.983-15.985v-93.88" fill="#fccb06"/><path d="M200.087 97.906v51.79l-94.014 64.047 118.865-38.675V97.906h-24.85" fill="#cfa705"/><path d="M157.125 95.228c5.498-6.55 13.527-8.864 17.936-5.164 4.41 3.7 3.53 12.01-1.97 18.56-5.49 6.552-13.52 8.862-17.93 5.162s-3.52-12.008 1.97-18.558" fill="#231f20"/><path d="M14.724 253.116c-7.107 1.777-11.187 6.976-11.977 15.465-.526 6.12 1.12 11.13 4.87 14.81l3.027 2.83-4.146 9.02c-2.237 4.94-4.475 9.94-5 11.12l-.988 2.17 3.487-.2 3.422-.19 4.6-10.396 4.6-10.33h5.66v21.058h5.262v-55.94l-5.396.066c-3.03.065-6.32.263-7.438.526zm7.24 16.847v12.503l-3.16-.132c-4.278-.263-6.778-1.71-8.423-4.87-1.51-3.092-1.84-9.54-.65-13.226 1.38-4.278 5.92-7.173 10.6-6.91l1.647.13v12.505z" fill="red"/><path d="M189.44 263.185c-.064 25.928-2.763 42.643-6.908 42.643-.79 0-.988 1.118-.988 6.25v6.253h3.948v-9.21h24.348v9.21h3.95v-12.5h-3.95v-53.3h-20.4v10.66zm15.795 17.636v25.01h-8.226c-4.55 0-8.23-.06-8.23-.2 0-.06.59-1.97 1.31-4.21 1.64-5.33 2.43-13.68 3.022-31.32l.46-14.28h11.647v25.01zM100.93 269.24c-2.697 1.183-4.606 3.42-6.317 7.303-2.105 4.607-2.566 17.373-.92 23.1 2.566 8.883 11.055 12.436 19.478 8.093 2.31-1.12 2.57-1.514 2.18-3.093-.66-2.698-1.18-2.96-3.88-1.843-3.68 1.58-7.3 1.382-9.21-.526-1.71-1.777-2.96-5.462-2.96-9.147v-2.435h16.45v-3.488c0-9.08-2.5-15.4-6.91-17.57-3.16-1.514-5.13-1.645-7.893-.395zm5.397 5.33c1.382.986 2.83 5.724 2.83 9.212 0 1.58-.132 1.645-4.936 1.645-4.86 0-4.93 0-4.93-1.71 0-3.357 1.52-7.568 3.16-8.82 1.98-1.578 2.11-1.578 3.88-.328zm50.013-5.594c-3.356 1.053-6.514 4.014-8.29 7.83-1.58 3.357-1.712 4.41-1.712 11.912 0 9.805 1.053 13.688 4.804 17.24 4.146 3.95 9.607 4.74 14.74 2.107 1.777-.92 1.91-1.25 1.514-3.422-.592-3.093-.526-3.093-2.5-1.777-2.633 1.71-6.713 1.58-8.62-.263-2.568-2.435-3.358-5.594-3.358-13.556 0-5.99.264-7.765 1.448-10.332 2.106-4.606 5.594-5.79 10.07-3.488 1.183.593 2.17.987 2.302.856.066-.132.33-1.382.526-2.896.395-2.435.264-2.764-1.316-3.487-2.37-1.12-7.37-1.448-9.608-.724zm67.913.79c-4.738 3.16-7.633 12.7-6.91 22.703.79 11.12 5.133 17.3 12.175 17.3 4.54 0 9.28-2.7 9.28-5.33 0-1.85-1.318-2.17-2.83-.73-3.62 3.354-8.49 3.42-11.254.064-1.777-2.106-2.698-4.87-3.422-10.266l-.395-3.42 9.08-.2 9.15-.195.196-3.093c.263-4.014-.855-10.003-2.37-12.964-1.644-3.097-4.935-5.33-8.028-5.33-1.447 0-3.356.59-4.672 1.443zm7.173 2.895c2.238 1.58 3.488 4.54 3.883 9.55l.39 4.54h-14.81l.46-2.83c.85-5.59 1.84-8.03 3.95-10.13 2.43-2.43 3.88-2.7 6.12-1.12zM35.453 289.05v20.07h6.58v-17.77h9.214v17.768h5.923v-40.142h-5.923v17.11h-9.214v-17.108h-6.58v20.07zm31.587-13.162c0 8.555-.987 17.834-2.5 23.428-.922 3.422-1.382 4.277-2.633 4.41-1.382.196-1.447.46-1.447 6.777v6.516h5.922v-7.9h17.11v7.89h5.265v-6.585c0-6.12-.066-6.58-1.316-6.58s-1.31-.46-1.31-17.44v-17.43H67.04v6.91zm12.504 13.162v14.806H69.542l.46-1.842c1.382-5.46 2.303-12.24 2.698-19.543l.46-8.22h6.385v14.81zm42.116 0v20.07h6.515l.197-9.278.198-9.215 4.87 9.213 4.935 9.278h7.04l-1.117-2.172c-.593-1.118-3.16-5.922-5.66-10.53l-4.54-8.422 5-9.542 5.002-9.476h-6.58l-4.607 8.686-4.672 8.752v-17.436h-6.58v20.07zm124.375 0v20.07h3.95v-19.083h13.16v19.084h3.948v-40.14h-3.95v17.77h-13.16v-17.77h-3.95v20.07zm29.613 0v20.07h4.54c5.463 0 8.293-.855 11.057-3.487 2.764-2.63 3.685-5.527 3.356-10.725-.46-6.844-3.81-10.266-10.72-10.66l-4.27-.264V268.98h-3.95v20.07zm11.32-.987c.92.46 2.105 1.58 2.697 2.633 1.448 2.37 1.448 8.62.066 11.253-1.11 2.3-4.4 3.88-7.83 3.88h-2.3v-19.28l2.9.39c1.58.26 3.62.72 4.48 1.12zm14.345.988v20.07h3.95v-36.85h13.16v-3.29h-17.11v20.07zm22.375 0v20.07h1.842c1.843 0 2.172-.59 9.213-15.99l7.37-15.92v31.92h3.95v-40.14h-1.844c-1.72 0-2.11.727-9.02 15.73l-7.24 15.794-.2-15.794-.13-15.73h-3.95v20.07z"/></svg>